<?xml version="1.0" encoding="UTF-8" standalone="no"?>
<svg
   xmlns:dc="http://purl.org/dc/elements/1.1/"
   xmlns:cc="http://creativecommons.org/ns#"
   xmlns:rdf="http://www.w3.org/1999/02/22-rdf-syntax-ns#"
   xmlns:svg="http://www.w3.org/2000/svg"
   xmlns="http://www.w3.org/2000/svg"
   xmlns:sodipodi="http://sodipodi.sourceforge.net/DTD/sodipodi-0.dtd"
   xmlns:inkscape="http://www.inkscape.org/namespaces/inkscape"
   width="1378.4852"
   height="948.31525"
   viewBox="0 0 364.72421 250.90841"
   version="1.1"
   id="svg990"
   inkscape:version="1.0.2 (e86c870879, 2021-01-15)"
   sodipodi:docname="lepus.svg">
  <defs
     id="defs984">
    <filter
       inkscape:collect="always"
       style="color-interpolation-filters:sRGB"
       id="filter6655"
       x="-0.090842031"
       width="1.1816841"
       y="-0.097557329"
       height="1.1951147">
      <feGaussianBlur
         inkscape:collect="always"
         stdDeviation="0.37524043"
         id="feGaussianBlur6657" />
    </filter>
    <filter
       inkscape:collect="always"
       style="color-interpolation-filters:sRGB"
       id="filter6227"
       x="-0.090807155"
       width="1.1816143"
       y="-0.097519867"
       height="1.1950397">
      <feGaussianBlur
         inkscape:collect="always"
         stdDeviation="0.37509635"
         id="feGaussianBlur6229" />
    </filter>
    <filter
       inkscape:collect="always"
       style="color-interpolation-filters:sRGB"
       id="filter6231"
       x="-0.070073873"
       width="1.1401477"
       y="-0.075254187"
       height="1.1505084">
      <feGaussianBlur
         inkscape:collect="always"
         stdDeviation="0.37509635"
         id="feGaussianBlur6233" />
    </filter>
    <filter
       inkscape:collect="always"
       style="color-interpolation-filters:sRGB"
       id="filter6235"
       x="-0.070073873"
       width="1.1401477"
       y="-0.075254224"
       height="1.1505085">
      <feGaussianBlur
         inkscape:collect="always"
         stdDeviation="0.37509635"
         id="feGaussianBlur6237" />
    </filter>
    <filter
       inkscape:collect="always"
       style="color-interpolation-filters:sRGB"
       id="filter6239"
       x="-0.080969229"
       width="1.1619385"
       y="-0.086955078"
       height="1.1739101">
      <feGaussianBlur
         inkscape:collect="always"
         stdDeviation="0.37509635"
         id="feGaussianBlur6241" />
    </filter>
    <filter
       inkscape:collect="always"
       style="color-interpolation-filters:sRGB"
       id="filter6243"
       x="-0.074672736"
       width="1.1493455"
       y="-0.080193117"
       height="1.1603862">
      <feGaussianBlur
         inkscape:collect="always"
         stdDeviation="0.37509635"
         id="feGaussianBlur6245" />
    </filter>
    <filter
       inkscape:collect="always"
       style="color-interpolation-filters:sRGB"
       id="filter6247"
       x="-0.064866863"
       width="1.1297337"
       y="-0.069662243"
       height="1.1393245">
      <feGaussianBlur
         inkscape:collect="always"
         stdDeviation="0.37509635"
         id="feGaussianBlur6249" />
    </filter>
    <filter
       inkscape:collect="always"
       style="color-interpolation-filters:sRGB"
       id="filter6251"
       x="-0.060549039"
       width="1.121098"
       y="-0.065025218"
       height="1.1300504">
      <feGaussianBlur
         inkscape:collect="always"
         stdDeviation="0.37509635"
         id="feGaussianBlur6253" />
    </filter>
    <filter
       inkscape:collect="always"
       style="color-interpolation-filters:sRGB"
       id="filter6255"
       x="-0.077598386"
       width="1.1551968"
       y="-0.08333499"
       height="1.16667">
      <feGaussianBlur
         inkscape:collect="always"
         stdDeviation="0.37509635"
         id="feGaussianBlur6257" />
    </filter>
    <filter
       inkscape:collect="always"
       style="color-interpolation-filters:sRGB"
       id="filter6259"
       x="-0.085787944"
       width="1.1715759"
       y="-0.09212967"
       height="1.1842593">
      <feGaussianBlur
         inkscape:collect="always"
         stdDeviation="0.37509635"
         id="feGaussianBlur6261" />
    </filter>
    <filter
       inkscape:collect="always"
       style="color-interpolation-filters:sRGB"
       id="filter6263"
       x="-0.10369607"
       width="1.2073921"
       y="-0.11136128"
       height="1.2227226">
      <feGaussianBlur
         inkscape:collect="always"
         stdDeviation="0.37509635"
         id="feGaussianBlur6265" />
    </filter>
    <filter
       inkscape:collect="always"
       style="color-interpolation-filters:sRGB"
       id="filter4495"
       x="-0.011910114"
       width="1.0238202"
       y="-0.01259122"
       height="1.0251824">
      <feGaussianBlur
         inkscape:collect="always"
         stdDeviation="0.37617634"
         id="feGaussianBlur4497" />
    </filter>
    <filter
       inkscape:collect="always"
       style="color-interpolation-filters:sRGB"
       id="filter4499"
       x="-0.046357293"
       width="1.0927145"
       y="-0.023666194"
       height="1.0473324">
      <feGaussianBlur
         inkscape:collect="always"
         stdDeviation="0.37509635"
         id="feGaussianBlur4501" />
    </filter>
    <filter
       inkscape:collect="always"
       style="color-interpolation-filters:sRGB"
       id="filter4503"
       x="-0.0082447771"
       width="1.0164896"
       y="-0.0095659066"
       height="1.0191318">
      <feGaussianBlur
         inkscape:collect="always"
         stdDeviation="0.37509635"
         id="feGaussianBlur4505" />
    </filter>
    <filter
       inkscape:collect="always"
       style="color-interpolation-filters:sRGB"
       id="filter6267"
       x="-0.093947738"
       width="1.1878955"
       y="-0.093947664"
       height="1.1878953">
      <feGaussianBlur
         inkscape:collect="always"
         stdDeviation="0.37509635"
         id="feGaussianBlur6269" />
    </filter>
    <filter
       inkscape:collect="always"
       style="color-interpolation-filters:sRGB"
       id="filter6271"
       x="-0.1015214"
       width="1.2030427"
       y="-0.10152137"
       height="1.2030427">
      <feGaussianBlur
         inkscape:collect="always"
         stdDeviation="0.37509635"
         id="feGaussianBlur6273" />
    </filter>
    <filter
       inkscape:collect="always"
       style="color-interpolation-filters:sRGB"
       id="filter6275"
       x="-0.11263599"
       width="1.2252721"
       y="-0.11263626"
       height="1.2252725">
      <feGaussianBlur
         inkscape:collect="always"
         stdDeviation="0.37509635"
         id="feGaussianBlur6277" />
    </filter>
    <filter
       inkscape:collect="always"
       style="color-interpolation-filters:sRGB"
       id="filter6279"
       x="-0.11644939"
       width="1.2328988"
       y="-0.11644953"
       height="1.2328991">
      <feGaussianBlur
         inkscape:collect="always"
         stdDeviation="0.37509635"
         id="feGaussianBlur6281" />
    </filter>
    <filter
       inkscape:collect="always"
       style="color-interpolation-filters:sRGB"
       id="filter6283"
       x="-0.12403301"
       width="1.2480659"
       y="-0.1240328"
       height="1.2480656">
      <feGaussianBlur
         inkscape:collect="always"
         stdDeviation="0.37509635"
         id="feGaussianBlur6285" />
    </filter>
    <filter
       inkscape:collect="always"
       style="color-interpolation-filters:sRGB"
       id="filter6287"
       x="-0.12586237"
       width="1.2517248"
       y="-0.12586237"
       height="1.2517248">
      <feGaussianBlur
         inkscape:collect="always"
         stdDeviation="0.37509635"
         id="feGaussianBlur6289" />
    </filter>
    <filter
       inkscape:collect="always"
       style="color-interpolation-filters:sRGB"
       id="filter6291"
       x="-0.132369"
       width="1.264738"
       y="-0.13244472"
       height="1.2648894">
      <feGaussianBlur
         inkscape:collect="always"
         stdDeviation="0.37509635"
         id="feGaussianBlur6293" />
    </filter>
    <filter
       inkscape:collect="always"
       style="color-interpolation-filters:sRGB"
       id="filter6295"
       x="-0.1347684"
       width="1.2695369"
       y="-0.13476859"
       height="1.2695372">
      <feGaussianBlur
         inkscape:collect="always"
         stdDeviation="0.37509635"
         id="feGaussianBlur6297" />
    </filter>
    <filter
       inkscape:collect="always"
       style="color-interpolation-filters:sRGB"
       id="filter6299"
       x="-0.15592258"
       width="1.3118452"
       y="-0.1559228"
       height="1.3118455">
      <feGaussianBlur
         inkscape:collect="always"
         stdDeviation="0.37509635"
         id="feGaussianBlur6301" />
    </filter>
    <filter
       inkscape:collect="always"
       style="color-interpolation-filters:sRGB"
       id="filter6303"
       x="-0.15817022"
       width="1.3163404"
       y="-0.15827811"
       height="1.3165562">
      <feGaussianBlur
         inkscape:collect="always"
         stdDeviation="0.37509635"
         id="feGaussianBlur6305" />
    </filter>
    <filter
       inkscape:collect="always"
       style="color-interpolation-filters:sRGB"
       id="filter6307"
       x="-0.17419016"
       width="1.3483803"
       y="-0.17419073"
       height="1.3483815">
      <feGaussianBlur
         inkscape:collect="always"
         stdDeviation="0.37509635"
         id="feGaussianBlur6309" />
    </filter>
  </defs>
  <sodipodi:namedview
     id="base"
     pagecolor="#ffffff"
     bordercolor="#666666"
     borderopacity="1.0"
     inkscape:pageopacity="0"
     inkscape:pageshadow="2"
     inkscape:zoom="0.35"
     inkscape:cx="594.35312"
     inkscape:cy="664.19724"
     inkscape:document-units="mm"
     inkscape:current-layer="layer1"
     inkscape:document-rotation="0"
     showgrid="false"
     units="px"
     inkscape:window-width="1920"
     inkscape:window-height="1025"
     inkscape:window-x="0"
     inkscape:window-y="27"
     inkscape:window-maximized="1" />
  <metadata
     id="metadata987">
    <rdf:RDF>
      <cc:Work
         rdf:about="">
        <dc:format>image/svg+xml</dc:format>
        <dc:type
           rdf:resource="http://purl.org/dc/dcmitype/StillImage" />
        <dc:title></dc:title>
      </cc:Work>
    </rdf:RDF>
  </metadata>
  <g
     inkscape:label="Layer 1"
     inkscape:groupmode="layer"
     id="layer1"
     transform="translate(51.422596,27.568853)">
    <rect
       style="fill:#d40000;stroke-width:0.264583"
       id="rect101"
       width="364.72421"
       height="250.9084"
       x="-51.422596"
       y="-27.568853"
       rx="30"
       ry="30" />
    <g
       id="g1045"
       transform="matrix(0.37232438,0,0,0.37232438,957.03643,-22.904199)">
      <path
         id="path958"
         style="fill:#ffffff;stroke:none;stroke-width:0.628345;filter:url(#filter6655)"
         inkscape:transform-center-y="0.33535591"
         d="m -31.370766,-186.32005 0.621028,1.80798 -1.965502,-0.19457 -0.600093,1.81455 -1.471501,-1.271 -1.591975,1.12802 -0.415409,-1.86194 -1.975834,0.0103 0.799363,-1.74168 -1.604947,-1.11084 1.70879,-0.95616 -0.621037,-1.80799 1.965511,0.19457 0.600101,-1.81454 1.471476,1.271 1.592018,-1.12802 0.415375,1.86194 1.975842,-0.0103 -0.799363,1.74168 1.604947,1.11083 z"
         inkscape:transform-center-x="-0.9226039"
         transform="matrix(4.5161541,0,0,4.5161541,-1863.3608,925.79526)" />
      <path
         id="path960"
         style="fill:#ffffff;stroke:none;stroke-width:0.628345;filter:url(#filter6227)"
         inkscape:transform-center-y="0.33535592"
         d="m -13.316781,-189.39815 0.621028,1.80798 -1.965502,-0.19457 -0.600093,1.81455 -1.471501,-1.271 -1.591975,1.12802 -0.415409,-1.86194 -1.975834,0.0103 0.799363,-1.74168 -1.604947,-1.11084 1.70879,-0.95616 -0.621037,-1.80799 1.965511,0.19457 0.600101,-1.81454 1.471476,1.271 1.592018,-1.12802 0.415375,1.86194 1.975842,-0.0103 -0.799363,1.74168 1.604947,1.11083 z"
         inkscape:transform-center-x="-0.92260382"
         transform="matrix(4.5161541,0,0,4.5161541,-1863.3608,925.79526)" />
      <path
         id="path962"
         style="fill:#ffffff;stroke:none;stroke-width:0.814259;filter:url(#filter6231)"
         inkscape:transform-center-y="0.43460349"
         d="m -10.9845,-151.01002 0.804777,2.34292 -2.547051,-0.25213 -0.777645,2.35143 -1.906886,-1.64707 -2.063005,1.46178 -0.538319,-2.41285 -2.560437,0.0134 1.035876,-2.257 -2.079815,-1.43951 2.214383,-1.23907 -0.804787,-2.34292 2.547061,0.25214 0.777657,-2.35144 1.906851,1.64707 2.06306,-1.46178 0.538276,2.41285 2.5604491,-0.0133 -1.0358751,2.257 2.0798141,1.43951 z"
         inkscape:transform-center-x="-1.1955816"
         transform="matrix(4.5161541,0,0,4.5161541,-1863.3608,925.79526)" />
      <path
         id="path964"
         style="fill:#ffffff;stroke:none;stroke-width:0.814259;filter:url(#filter6235)"
         inkscape:transform-center-y="0.43460317"
         d="m 10.151405,-79.305667 0.804777,2.34292 -2.5470505,-0.252137 -0.7776456,2.351432 -1.9068857,-1.647064 -2.0630048,1.461772 -0.5383189,-2.412842 -2.5604376,0.0134 1.0358758,-2.257005 -2.0798144,-1.439505 2.2143823,-1.239077 -0.80478681,-2.342918 2.54706131,0.25214 0.7776567,-2.351435 1.9068515,1.647066 2.0630594,-1.461779 0.5382763,2.412845 2.560449,-0.01333 -1.035875,2.257009 2.079814,1.439507 z"
         inkscape:transform-center-x="-1.1955815"
         transform="matrix(4.5161541,0,0,4.5161541,-1863.3608,925.79526)" />
      <path
         id="path966"
         style="fill:#ffffff;stroke:none;stroke-width:0.704691;filter:url(#filter6239)"
         inkscape:transform-center-y="0.37611867"
         d="m -115.30821,-92.495317 0.6965,2.027651 -2.20432,-0.218209 -0.67301,2.035017 -1.65029,-1.42543 -1.7854,1.265072 -0.46588,-2.088164 -2.2159,0.01159 0.89649,-1.953297 -1.79996,-1.245801 1.91642,-1.072343 -0.6965,-2.02765 2.20432,0.218211 0.67301,-2.035019 1.65027,1.425432 1.78545,-1.265079 0.46585,2.088168 2.2159,-0.01154 -0.89648,1.953298 1.79995,1.245807 z"
         inkscape:transform-center-x="-1.0347014"
         transform="matrix(4.5161541,0,0,4.5161541,-1863.3608,925.79526)" />
      <path
         id="path968"
         style="fill:#ffffff;stroke:none;stroke-width:0.764111;filter:url(#filter6243)"
         inkscape:transform-center-y="0.40783474"
         d="m -95.302019,-75.288946 0.755215,2.198625 -2.390185,-0.236608 -0.729748,2.206612 -1.789448,-1.545624 -1.935955,1.371744 -0.50516,-2.26424 -2.40275,0.01257 0.97208,-2.118001 -1.95173,-1.350849 2.07801,-1.162764 -0.75523,-2.198624 2.3902,0.236611 0.72976,-2.206615 1.78942,1.545627 1.936003,-1.371752 0.505124,2.264244 2.402755,-0.01251 -0.972072,2.118002 1.951718,1.350855 z"
         inkscape:transform-center-x="-1.1219486"
         transform="matrix(4.5161541,0,0,4.5161541,-1863.3608,925.79526)" />
      <path
         id="path970"
         style="fill:#ffffff;stroke:none;stroke-width:0.879621;filter:url(#filter6247)"
         inkscape:transform-center-y="0.46948717"
         d="m -51.672626,-96.787142 0.869379,2.530992 -2.751508,-0.272377 -0.840069,2.540187 -2.059956,-1.779278 -2.228607,1.579112 -0.581531,-2.606526 -2.76597,0.01447 1.119028,-2.43818 -2.246766,-1.555058 2.392136,-1.33854 -0.869389,-2.53099 2.75152,0.27238 0.840081,-2.54019 2.059919,1.77928 2.228666,-1.57912 0.581485,2.60653 2.765982,-0.0144 -1.119028,2.438185 2.246766,1.555059 z"
         inkscape:transform-center-x="-1.2915539"
         transform="matrix(4.5161541,0,0,4.5161541,-1863.3608,925.79526)" />
      <path
         id="path972"
         style="fill:#ffffff;stroke:none;stroke-width:0.942348;filter:url(#filter6251)"
         inkscape:transform-center-y="0.50296705"
         d="m -64.991502,-130.40608 0.931375,2.71148 -2.947722,-0.2918 -0.899975,2.72133 -2.206854,-1.90616 -2.387531,1.69172 -0.623001,-2.7924 -2.963215,0.0155 1.198827,-2.61205 -2.406985,-1.66595 2.562722,-1.43399 -0.931387,-2.71148 2.947735,0.2918 0.899988,-2.72133 2.206815,1.90616 2.387594,-1.69172 0.622951,2.7924 2.963228,-0.0155 -1.198827,2.61205 2.406985,1.66595 z"
         inkscape:transform-center-x="-1.383656"
         transform="matrix(4.5161541,0,0,4.5161541,-1863.3608,925.79526)" />
      <path
         id="path974"
         style="fill:#ffffff;stroke:none;stroke-width:0.735302;filter:url(#filter6255)"
         inkscape:transform-center-y="0.39245974"
         d="m -107.64858,-163.66703 0.72674,2.11574 -2.30007,-0.22769 -0.70224,2.12342 -1.72198,-1.48735 -1.86296,1.32003 -0.48612,-2.17888 -2.31216,0.0121 0.93543,-2.03815 -1.87814,-1.29992 1.99966,-1.11892 -0.72675,-2.11574 2.30008,0.22769 0.70225,-2.12342 1.72195,1.48735 1.86301,-1.32003 0.48608,2.17888 2.31217,-0.0121 -0.93543,2.03815 1.87814,1.29992 z"
         inkscape:transform-center-x="-1.0796495"
         transform="matrix(4.5161541,0,0,4.5161541,-1863.3608,925.79526)" />
      <path
         id="path976"
         style="fill:#ffffff;stroke:none;stroke-width:0.665108;filter:url(#filter6259)"
         inkscape:transform-center-y="-0.00014319498"
         d="m -135.21495,-169.57305 0.65736,1.91376 -2.08049,-0.20595 -0.63521,1.92071 -1.55759,-1.34536 -1.68512,1.19401 -0.43971,-1.97087 -2.09143,0.0109 0.84613,-1.84358 -1.69885,-1.17582 1.80877,-1.01211 -0.65738,-1.91376 2.08051,0.20595 0.63521,-1.92071 1.55757,1.34536 1.68516,-1.19401 0.43968,1.97087 2.09144,-0.0109 -0.84613,1.84358 1.69885,1.17582 z"
         inkscape:transform-center-x="-3.0843761e-06"
         transform="matrix(4.5161541,0,0,4.5161541,-1863.3608,925.79526)" />
      <path
         id="path978"
         style="fill:#ffffff;stroke:none;stroke-width:0.550245;filter:url(#filter6263)"
         inkscape:transform-center-y="-0.00013009133"
         d="m -162.56914,-158.61424 0.54384,1.58326 -1.7212,-0.17039 -0.52551,1.58901 -1.28859,-1.11302 -1.39411,0.98781 -0.36377,-1.63051 -1.73024,0.009 0.7,-1.5252 -1.40546,-0.97276 1.4964,-0.83732 -0.54385,-1.58326 1.72121,0.17039 0.52551,-1.58901 1.28858,1.11302 1.39413,-0.98781 0.36375,1.63051 1.73025,-0.009 -0.7,1.5252 1.40546,0.97276 z"
         inkscape:transform-center-x="-2.7558813e-06"
         transform="matrix(4.5161541,0,0,4.5161541,-1863.3608,925.79526)" />
      <path
         style="clip-rule:nonzero;mix-blend-mode:normal;fill:none;fill-opacity:1;stroke:#ffffff;stroke-width:0.666851;stroke-linecap:butt;stroke-linejoin:miter;stroke-miterlimit:4;stroke-dasharray:none;stroke-opacity:1;filter:url(#filter4495)"
         d="m 5.9384445,-80.844519 v 0 l -21.1339505,-71.702601 -54.66912,20.35794 13.64508,33.739431 62.1579905,17.60523"
         id="path982"
         transform="matrix(4.5161541,0,0,4.5161541,-1863.3608,925.79526)" />
      <path
         style="clip-rule:nonzero;mix-blend-mode:normal;fill:none;fill-opacity:1;stroke:#ffffff;stroke-width:0.670811;stroke-linecap:butt;stroke-linejoin:miter;stroke-miterlimit:4;stroke-dasharray:none;stroke-opacity:1;filter:url(#filter4499)"
         d="m -34.614916,-187.50793 19.41941,34.96081 -1.37126,-38.0387"
         id="path984"
         transform="matrix(4.5161541,0,0,4.5161541,-1863.3608,925.79526)" />
      <path
         style="clip-rule:nonzero;mix-blend-mode:normal;fill:none;fill-opacity:1;stroke:#ffffff;stroke-width:0.512414;stroke-linecap:butt;stroke-linejoin:miter;stroke-miterlimit:4;stroke-dasharray:none;stroke-opacity:1;filter:url(#filter4503)"
         d="m -56.219546,-98.449749 -43.02393,21.72394 -19.714204,-17.08155 -46.44993,-65.845201 26.75634,-11.18155 27.20371,5.77513 41.582924,32.8698"
         id="path986"
         transform="matrix(4.5161541,0,0,4.5161541,-1863.3608,925.79526)" />
      <path
         style="clip-rule:nonzero;fill:#ffffff;fill-opacity:1;fill-rule:nonzero;stroke:none;filter:url(#filter6267)"
         d="m -69.615796,-127.40267 c 2.64487,-0.1375 4.67496,-2.39438 4.53767,-5.03535 -0.1373,-2.64096 -2.39028,-4.67126 -5.03515,-4.53376 -2.64096,0.1373 -4.67126,2.39028 -4.53396,5.03124 0.1373,2.64097 2.39048,4.67517 5.03144,4.53787"
         id="path988"
         transform="matrix(4.5161541,0,0,4.5161541,-1863.3608,925.79526)" />
      <path
         style="clip-rule:nonzero;fill:#ffffff;fill-opacity:1;fill-rule:nonzero;stroke:none;filter:url(#filter6271)"
         d="m -55.989376,-94.022129 c 2.44202,-0.12696 4.3246,-2.21189 4.19744,-4.6578 -0.12716,-2.445911 -2.21578,-4.324391 -4.6578,-4.197441 -2.44591,0.12716 -4.32459,2.21189 -4.19743,4.657811 0.12715,2.4459 2.21188,4.32458 4.65779,4.19743"
         id="path990"
         transform="matrix(4.5161541,0,0,4.5161541,-1863.3608,925.79526)" />
      <path
         style="clip-rule:nonzero;fill:#ffffff;fill-opacity:1;fill-rule:nonzero;stroke:none;filter:url(#filter6275)"
         d="m 6.1498145,-76.854019 c 2.20406,-0.11458 3.8978195,-1.99411 3.78324,-4.19817 -0.11459,-2.20405 -1.99412,-3.89781 -4.19817,-3.78323 -2.20406,0.11458 -3.89783,1.99412 -3.78325,4.19817 0.11459,2.20405 1.99413,3.89782 4.19818,3.78323"
         id="path992"
         transform="matrix(4.5161541,0,0,4.5161541,-1863.3608,925.79526)" />
      <path
         style="clip-rule:nonzero;fill:#ffffff;fill-opacity:1;fill-rule:nonzero;stroke:none;filter:url(#filter6279)"
         d="m -14.994936,-148.68904 c 2.13384,-0.11093 3.77214,-1.92891 3.66141,-4.05885 -0.11094,-2.13383 -1.92892,-3.77213 -4.06275,-3.66119 -2.12994,0.11073 -3.76823,1.92871 -3.6573,4.06253 0.11073,2.12995 1.92871,3.76824 4.05864,3.65751"
         id="path994"
         transform="matrix(4.5161541,0,0,4.5161541,-1863.3608,925.79526)" />
      <path
         style="clip-rule:nonzero;fill:#ffffff;fill-opacity:1;fill-rule:nonzero;stroke:none;filter:url(#filter6283)"
         d="m -99.063276,-73.109189 c 2.0051,-0.10424 3.53965,-1.81121 3.43541,-3.81633 -0.10384,-1.9973 -1.80712,-3.53594 -3.81222,-3.4317 -2.001204,0.10404 -3.539644,1.81121 -3.435804,3.80851 0.10424,2.00512 1.81141,3.54356 3.812614,3.43952"
         id="path996"
         transform="matrix(4.5161541,0,0,4.5161541,-1863.3608,925.79526)" />
      <path
         style="clip-rule:nonzero;fill:#ffffff;fill-opacity:1;fill-rule:nonzero;stroke:none;filter:url(#filter6287)"
         d="m -111.26568,-161.48549 c 1.97389,-0.10262 3.49014,-1.78516 3.38752,-3.75906 -0.10241,-1.97 -1.78496,-3.48625 -3.75886,-3.38363 -1.97,0.10242 -3.48625,1.78496 -3.38383,3.75496 0.10262,1.9739 1.78517,3.49015 3.75517,3.38773"
         id="path998"
         transform="matrix(4.5161541,0,0,4.5161541,-1863.3608,925.79526)" />
      <path
         style="clip-rule:nonzero;fill:#ffffff;fill-opacity:1;fill-rule:nonzero;stroke:none;filter:url(#filter6291)"
         d="m -138.47462,-167.43636 c 1.87247,-0.0973 3.31476,-1.69781 3.21741,-3.57028 -0.0975,-1.87638 -1.69782,-3.31476 -3.57029,-3.21742 -1.87637,0.0976 -3.31886,1.69412 -3.22131,3.5705 0.0973,1.87247 1.69782,3.31475 3.57419,3.2172"
         id="path1000"
         transform="matrix(4.5161541,0,0,4.5161541,-1863.3608,925.79526)" />
      <path
         style="clip-rule:nonzero;fill:#ffffff;fill-opacity:1;fill-rule:nonzero;stroke:none;filter:url(#filter6295)"
         d="m -118.77749,-90.491939 c 1.84126,-0.0957 3.25766,-1.66747 3.16194,-3.50873 -0.0957,-1.84126 -1.66747,-3.25766 -3.50873,-3.16194 -1.84127,0.0957 -3.25767,1.66747 -3.16195,3.50874 0.0957,1.84126 1.66748,3.25766 3.50874,3.16193"
         id="path1002"
         transform="matrix(4.5161541,0,0,4.5161541,-1863.3608,925.79526)" />
      <path
         style="clip-rule:nonzero;fill:#ffffff;fill-opacity:1;fill-rule:nonzero;stroke:none;filter:url(#filter6299)"
         d="m -34.468936,-184.6249 c 1.5916,-0.0827 2.8157,-1.4411 2.73296,-3.0327 -0.0828,-1.5916 -1.4411,-2.8157 -3.0327,-2.73295 -1.5916,0.0827 -2.8157,1.4411 -2.73296,3.0327 0.0828,1.5916 1.4411,2.8157 3.0327,2.73295"
         id="path1004"
         transform="matrix(4.5161541,0,0,4.5161541,-1863.3608,925.79526)" />
      <path
         style="clip-rule:nonzero;fill:#ffffff;fill-opacity:1;fill-rule:nonzero;stroke:none;filter:url(#filter6303)"
         d="m -16.419126,-187.7459 c 1.5721,-0.0817 2.77769,-1.41957 2.69617,-2.98776 -0.0815,-1.56819 -1.41936,-2.7738 -2.99145,-2.69207 -1.56821,0.0815 -2.7738,1.41936 -2.69228,2.98755 0.0815,1.5682 1.41936,2.77381 2.98756,2.69228"
         id="path1006"
         transform="matrix(4.5161541,0,0,4.5161541,-1863.3608,925.79526)" />
      <path
         style="clip-rule:nonzero;fill:#ffffff;fill-opacity:1;fill-rule:nonzero;stroke:none;filter:url(#filter6307)"
         d="m -165.27745,-157.07381 c 1.42386,-0.074 2.51852,-1.28874 2.44449,-2.7126 -0.0742,-1.42775 -1.28894,-2.52241 -2.7128,-2.44839 -1.42386,0.074 -2.52242,1.28895 -2.4482,2.7167 0.074,1.42386 1.29265,2.51832 2.71651,2.44429"
         id="path1008"
         transform="matrix(4.5161541,0,0,4.5161541,-1863.3608,925.79526)" />
    </g>
  </g>
</svg>
