<?xml version="1.0" encoding="UTF-8" standalone="no"?>
<svg
   xmlns:dc="http://purl.org/dc/elements/1.1/"
   xmlns:cc="http://creativecommons.org/ns#"
   xmlns:rdf="http://www.w3.org/1999/02/22-rdf-syntax-ns#"
   xmlns:svg="http://www.w3.org/2000/svg"
   xmlns="http://www.w3.org/2000/svg"
   xmlns:sodipodi="http://sodipodi.sourceforge.net/DTD/sodipodi-0.dtd"
   xmlns:inkscape="http://www.inkscape.org/namespaces/inkscape"
   width="211.66666mm"
   height="264.90479mm"
   viewBox="0 0 211.66666 264.90479"
   version="1.1"
   id="svg150"
   inkscape:version="1.0.2 (e86c870879, 2021-01-15)"
   sodipodi:docname="tuzi_sign_vertical.svg">
  <defs
     id="defs144" />
  <sodipodi:namedview
     id="base"
     pagecolor="#ffffff"
     bordercolor="#666666"
     borderopacity="1.0"
     inkscape:pageopacity="0.0"
     inkscape:pageshadow="2"
     inkscape:zoom="0.35"
     inkscape:cx="471.8945"
     inkscape:cy="560.18955"
     inkscape:document-units="mm"
     inkscape:current-layer="layer1"
     inkscape:document-rotation="0"
     showgrid="false"
     inkscape:window-width="1551"
     inkscape:window-height="761"
     inkscape:window-x="50"
     inkscape:window-y="114"
     inkscape:window-maximized="0" />
  <metadata
     id="metadata147">
    <rdf:RDF>
      <cc:Work
         rdf:about="">
        <dc:format>image/svg+xml</dc:format>
        <dc:type
           rdf:resource="http://purl.org/dc/dcmitype/StillImage" />
        <dc:title></dc:title>
      </cc:Work>
    </rdf:RDF>
  </metadata>
  <g
     inkscape:label="Layer 1"
     inkscape:groupmode="layer"
     id="layer1"
     transform="translate(19.400062,0.05015139)">
    <g
       id="g587"
       transform="matrix(1.7333189,0,0,1.7333189,434.98772,136.01069)">
      <path
         id="path404"
         style="fill:#d40000;fill-opacity:1;stroke:none;stroke-width:0.351061;stroke-linecap:butt;stroke-linejoin:miter;stroke-miterlimit:4;stroke-dasharray:none;stroke-opacity:1"
         d="m -222.86962,-78.49717 c -0.60124,-0.005 -1.13607,0.14303 -1.57045,0.35735 -1.38999,0.68584 -16.2849,5.72268 -20.52944,12.52249 -5.79792,9.28837 -4.96423,27.12529 -3.04983,32.70617 1.91441,5.58089 5.64374,9.89915 5.64374,9.89914 8.32451,-6.27321 12.87322,-22.00174 19.02881,-33.89394 l -7.49555,18.41131 c 0.97978,3.47003 1.81677,6.89271 3.13678,10.47624 -1.92481,0.0318 -4.59344,0.79476 -7.38191,2.53024 -3.34483,2.08175 -6.81119,5.59319 -9.07422,11.01159 -1.94684,4.66139 -1.95625,9.10434 -0.88586,12.82713 -1.26723,3.12973 -2.08559,6.17297 -2.14617,8.85103 2.21224,21.32094 19.84977,28.58927 37.52979,30.54084 17.68002,1.95157 54.13149,-8.25354 51.16473,-25.18736 -0.98073,-5.59787 -2.72437,-10.49684 -4.82155,-14.80421 0.30118,-3.61239 -0.16954,-7.36297 -1.6478,-10.91302 -2.31061,-5.5489 -6.7088,-10.36302 -11.93921,-13.30085 l 3.39486,-5.74576 c -1.89342,-5.77785 -3.27293,-11.81921 -3.0827,-17.38646 1.31053,13.05142 9.50191,33.73671 12.75113,35.88746 3.24924,2.15075 7.3384,-0.77971 8.88597,-3.23947 1.54756,-2.45976 7.18123,-15.18596 5.7519,-27.31711 -1.42934,-12.13115 -14.93848,-24.9441 -21.79385,-25.7227 -0.85692,-0.0974 -1.6174,-0.13992 -2.29406,-0.13009 -4.73665,0.0689 -5.37664,2.705 -6.39884,7.08548 -1.00492,4.30638 -5.57361,26.73024 -6.96979,33.59135 -0.16161,-0.009 -0.32298,-0.0175 -0.48469,-0.0225 -1.09067,-0.0342 -2.18327,0.0274 -3.26891,0.18826 -2.49978,-0.66147 -4.98485,-1.1309 -7.30456,-1.65876 -3.33718,-0.7594 -6.97142,-1.17495 -10.48376,-1.21035 -3.35811,-0.0339 -6.59937,0.28382 -9.3686,0.9769 0.54222,-11.6088 1.16906,-41.29554 -0.71197,-44.1292 -1.61515,-2.43313 -3.26126,-3.18919 -4.58399,-3.20113 z m 34.6018,50.08649 c 0.36689,-0.0106 0.73434,-0.0106 1.1015,6.9e-4 2.9373,0.0939 5.87139,0.90889 8.62171,2.27489 5.50062,2.73197 10.22201,7.68078 12.59504,13.37958 2.40425,5.77378 2.03398,12.14793 -0.0802,17.45974 -2.11401,5.31179 -5.96954,9.528 -10.41668,11.03555 -4.52135,1.53272 -10.36523,1.68929 -15.7291,0.0307 -5.36387,-1.65844 -10.2391,-5.10304 -12.95514,-10.77404 -3.09101,-6.4539 -2.87853,-13.11671 -0.8304,-18.76935 2.04813,-5.65264 5.9508,-10.27459 10.15517,-12.58478 2.41704,-1.3281 4.96979,-1.97507 7.538,-2.05309 z m -39.1639,1.45407 c 0.23105,0.003 0.43986,0.0191 0.62366,0.048 4.93442,0.77491 7.35135,2.22548 8.62375,4.37999 1.27241,2.1545 1.42168,5.18195 1.44655,9.14404 0.0391,6.22191 -1.89033,12.97748 -5.40004,17.30981 -1.75487,2.16617 -3.88982,3.72387 -6.37009,4.37041 -2.48027,0.64654 -5.32929,0.39658 -8.57447,-1.15696 -2.47428,-1.18449 -5.07691,-3.98543 -6.50222,-7.73857 -1.42532,-3.75315 -1.69766,-8.44426 0.40049,-13.46791 2.17759,-5.21382 5.48755,-8.54686 8.65797,-10.52006 2.77413,-1.72655 5.47698,-2.38564 7.0944,-2.36867 z m 43.10439,0.58395 c -1.98952,0.008 -3.99655,0.53228 -5.94085,1.69436 -6.7782,4.05127 -12.2101,15.70387 -7.28401,26.89198 4.34905,9.87768 14.44628,12.6167 21.68979,9.94569 7.24353,-2.67099 12.32308,-14.20901 8.47656,-24.257 -2.95879,-7.72908 -9.83606,-14.30217 -16.94149,-14.27503 z m -44.80628,1.02209 c -0.32618,-10e-4 -0.67017,0.0269 -1.03372,0.089 -2.20919,0.37718 -8.38946,2.25234 -11.74959,11.21834 -3.25351,8.68146 -1.05306,16.37467 2.53982,17.98755 5.76628,2.58855 14.31625,-5.51248 15.3026,-15.85027 0.61393,-6.43447 -0.16637,-13.41549 -5.05911,-13.44462 z m -0.1458,0.6175 c 0.15417,-0.003 0.30226,0.005 0.44224,0.0219 -1.21198,1.98646 -2.90491,3.87594 -4.65042,5.93331 l -6.41665,2.66853 c 1.15735,-2.14302 2.3449,-3.72004 2.91497,-4.43065 1.61009,-2.007 5.39723,-4.15867 7.70986,-4.1931 z m 47.9232,0.47853 c -1.09183,1.87444 -2.59041,4.25316 -4.12739,6.91434 l -8.8928,2.59185 c 0.93221,-2.21798 1.92236,-3.99409 2.56241,-4.97627 3.82615,-3.02648 7.82897,-4.62235 10.45778,-4.52992 z m -54.00579,7.7735 c -3.38513,4.33368 -6.39838,9.6843 -5.85048,18.09707 -2.86785,-6.01883 -1.4422,-11.95154 0.54698,-16.22473 z m 47.71305,3.08132 c -3.43848,6.66083 -6.16455,14.34889 -3.68514,20.55613 -6.92029,-4.86234 -6.09965,-13.13742 -3.99594,-19.38548 z m -23.23095,-3.36614 c 1.2495,0.0224 3.31496,0.10363 4.51795,0.49955 -2.02814,4.16942 -2.90664,13.39587 -1.87542,17.7314 -3.60168,-1.80565 -7.07249,-3.47039 -10.14205,-1.34145 l 0.15952,-0.74483 c 1.55139,-3.5742 2.83378,-11.72297 2.94974,-15.699 1.20094,-0.23886 2.47853,-0.41966 3.78098,-0.44499 0.2028,-0.004 0.4059,-0.004 0.60928,-6.8e-4 z m -9.32052,21.71036 c 1.73435,4.88701 6.79489,3.32395 12.92091,1.10013 -1.98199,1.45207 -6.87272,3.67431 -9.85807,4.86331 -2.52055,-2.34485 -2.35457,-3.47525 -3.06284,-5.96344 z m 4.03496,8.59568 c 0,0 7.13942,4.94812 10.93698,5.62389 3.79757,0.67581 12.65187,-0.0711 12.65187,-0.0711 l -13.75338,14.55298 -8.95372,-0.23003 -1.1501,-3.43321 -0.19169,3.39281 -7.13477,-1.12135 -9.43568,-13.55827 c 0,0 2.06563,0.6491 4.91603,0.17322 2.85038,-0.47588 12.11446,-5.32885 12.11446,-5.32885 z m -45.87716,29.70792 -0.10636,0.14025 v 0.14102 l 0.10636,0.98431 c 0.67192,2.43808 1.85598,3.65747 3.55346,3.65747 v 18.56709 l 0.10636,0.14024 h 4.03152 c 0.56585,0 1.22031,-0.16353 1.96297,-0.49174 1.06976,-0.38681 2.13056,-1.32482 3.18265,-2.81344 1.65329,2.20365 3.3864,3.30518 5.19883,3.30518 h 3.97831 l 0.10562,-0.14024 V 43.38911 l -0.10562,-0.14102 h -3.50109 l -0.10636,0.14102 v 18.56627 l -0.79566,-0.14024 c -1.90968,-0.80878 -2.86422,-2.37933 -2.86422,-4.71191 V 43.38832 l -0.10636,-0.14024 h -3.55431 l -0.10561,0.14024 v 13.64396 c 0,0.69157 -0.0885,1.30166 -0.26522,1.82914 -0.75149,2.063 -1.88365,3.09398 -3.39549,3.09398 V 43.38832 l -0.10561,-0.14024 z m 36.28371,0 -0.10636,0.14103 v 0.14024 l 0.0532,0.77391 c 0.6454,2.57874 1.84811,3.86787 3.60748,3.86787 v 13.78423 h -3.55428 l -0.10636,0.14103 v 4.64177 l 0.10636,0.14024 h 7.21418 l 0.10636,-0.14024 v -9.2134 l 1.00769,0.21118 c 1.76821,0.86741 2.65221,2.53173 2.65221,4.99327 v 4.00895 l 0.10636,0.14024 h 3.50106 l 0.10562,-0.14024 v -4.50152 c 0,-2.41463 -0.67151,-4.59447 -2.01536,-6.54023 1.52068,-1.50038 2.28059,-3.212 2.28059,-5.13434 v -0.35147 c 0,-0.94944 -0.19463,-1.86418 -0.58364,-2.7433 -1.3969,-2.81318 -3.64256,-4.21935 -6.73696,-4.21935 z m 36.70634,0 -0.10636,0.14103 v 14.34692 c 0,1.39484 0.31872,2.89485 0.95529,4.50069 1.5737,3.09451 3.6596,4.64178 6.25889,4.64178 h 2.22817 l 0.10636,-0.14024 V 62.0965 l -0.10636,-0.14103 h -1.21969 c -0.6896,0 -1.29137,-0.0698 -1.80414,-0.21039 -1.76822,-0.84397 -2.65221,-2.25094 -2.65221,-4.22016 V 43.3884 l -0.10562,-0.14025 z m 23.60549,0 -0.10562,0.14025 v 23.34994 l 0.10562,0.14024 h 4.08473 c 1.47644,0 2.90869,-0.60928 4.29676,-1.82833 1.94505,-2.05128 2.9174,-4.48925 2.9174,-7.31414 V 57.0323 c 0,-1.0315 -0.14109,-2.08574 -0.42404,-3.16412 -1.33499,-4.12598 -3.72257,-6.18956 -7.16175,-6.18956 h -0.10562 v -4.29028 l -0.10636,-0.14025 z m -73.04326,4.43057 -0.10636,0.14103 v 9.70516 c 0,2.56701 0.74288,4.81738 2.22818,6.75145 1.55603,1.73478 3.23562,2.60222 5.0392,2.60222 -0.6454,1.68789 -1.98923,2.5321 -4.03151,2.5321 h -1.32611 l -0.10561,0.14025 v 4.64177 l 0.10561,0.14102 h 2.28138 c 1.43226,0 2.88234,-0.60928 4.34995,-1.82833 1.90968,-2.10987 2.86423,-4.54867 2.86423,-7.31494 V 47.81962 l -0.10636,-0.14102 h -3.50108 l -0.10562,0.14102 v 14.0656 h -0.10636 c -0.85758,0 -1.54693,-0.23412 -2.06857,-0.70297 -1.20238,-0.67986 -1.80334,-2.34501 -1.80334,-4.99405 v -8.36858 l -0.10636,-0.14102 z m 36.23051,0 c -1.47647,0 -2.9087,0.6093 -4.29675,1.82833 -1.94505,2.03955 -2.91743,4.47833 -2.91743,7.31495 v 0.91416 c 0,1.38315 0.31871,2.88311 0.95527,4.50069 1.57371,3.0945 3.65962,4.64178 6.25891,4.64178 h 0.95527 c 1.47647,0 2.9087,-0.60929 4.29675,-1.82834 1.94504,-2.05127 2.91743,-4.48922 2.91743,-7.31413 v -0.91416 c 0,-1.38314 -0.31791,-2.88393 -0.95447,-4.50151 -1.57373,-3.09449 -3.66043,-4.64177 -6.25971,-4.64177 z m 31.18991,0 c -1.47648,0 -2.90871,0.6101 -4.29675,1.82913 -1.94506,2.03955 -2.91743,4.47752 -2.91743,7.31415 v 0.91416 c 0,1.44174 0.35358,3.03553 1.06087,4.78204 1.62677,2.90696 3.6778,4.36043 6.15331,4.36043 h 4.08472 l 0.10636,-0.14023 V 47.81976 l -0.10636,-0.14102 z m 25.46285,0 c -1.47651,0 -2.90952,0.6093 -4.29759,1.82833 -1.94501,2.03955 -2.91739,4.47753 -2.91739,7.31413 v 2.81345 l 0.10636,0.14103 h 7.00217 l -0.10636,0.14024 c -0.56583,1.35969 -1.92753,2.03953 -4.08472,2.03953 h -2.81104 l -0.10636,0.14103 v 4.64177 l 0.10636,0.14024 h 4.08473 c 1.47649,0 2.90873,-0.60926 4.29676,-1.82833 1.94499,-2.05127 2.91739,-4.48923 2.91739,-7.31413 v -2.81345 l -0.10636,-0.14024 h -7.00216 l 0.10636,-0.14103 c 0.56578,-1.35969 1.92749,-2.03953 4.08467,-2.03953 h 2.81105 l 0.10636,-0.14024 V 47.8197 l -0.10636,-0.14103 z m -72.83127,0.49256 0.90128,0.0702 c 2.01577,0.37511 3.02384,1.07817 3.02384,2.10968 l -0.0532,0.35229 c -0.53931,1.21903 -1.65282,1.82832 -3.34147,1.82832 h -0.26521 l -0.26524,0.0702 z m 16.65654,4.43056 1.2729,0.21121 c 1.76822,0.84395 2.65222,2.25013 2.65222,4.21934 v 0.49256 c 0,0.33992 -0.0527,0.76162 -0.15881,1.26565 -0.68076,2.10988 -1.9362,3.16491 -3.76631,3.16491 l -1.2737,-0.2104 c -1.76822,-0.84396 -2.65222,-2.25094 -2.65222,-4.22016 v -0.49256 c 0,-0.33992 0.0536,-0.76161 0.15962,-1.26564 0.68076,-2.10989 1.9362,-3.16491 3.7663,-3.16491 z m 31.18908,0 v 9.35367 l -1.27285,-0.2104 c -1.76825,-0.84396 -2.65223,-2.25094 -2.65223,-4.22016 v -0.49256 c 0,-0.33992 0.0527,-0.76161 0.15881,-1.26564 0.6896,-2.10989 1.94503,-3.16491 3.76627,-3.16491 z m 8.75311,0.0702 h 0.21204 c 0.42439,0 0.86635,0.0938 1.32608,0.28134 1.59141,0.87911 2.38701,2.23879 2.38701,4.07907 v 0.49256 c 0,0.33994 -0.0527,0.76162 -0.15881,1.26565 -0.68079,2.10988 -1.93618,3.16491 -3.76632,3.16491 z m -97.95228,16.86855 v 4.79171 h 22.27457 v -4.79171 z m 32.58595,0 c -0.53536,1.12869 -1.21378,2.20272 -2.04116,3.21973 -0.70817,0.65444 -1.41305,1.17479 -2.11452,1.57198 h 91.32904 v -4.79171 z" />
      <path
         id="rect501"
         style="fill:#ffffff;stroke:none;stroke-width:0.264583"
         d="m -187.71697,-28.418768 c -0.18362,-8.7e-5 -0.36743,0.003 -0.55087,0.0083 v -5.29e-4 c -2.56821,0.07802 -5.121,0.725006 -7.53804,2.053106 -4.20437,2.310186 -8.10733,6.932112 -10.15546,12.58475 -2.04812,5.6526377 -2.26057,12.3155074 0.83045,18.7694092 2.71603,5.6709998 7.59141,9.1155838 12.95528,10.7740188 5.36387,1.658593 11.20792,1.502224 15.72927,-0.03048 4.44714,-1.50757 8.30241,-5.723732 10.41642,-11.0355065 2.11418,-5.3118279 2.48434,-11.686143 0.0801,-17.4599335 -2.37303,-5.698781 -7.09395,-10.647574 -12.59458,-13.379532 -2.75032,-1.366001 -5.68439,-2.180897 -8.62169,-2.274797 -0.18358,-0.0056 -0.36725,-0.0087 -0.55087,-0.0088 z m -39.71489,1.461926 v 5.3e-4 c -1.61742,-0.01696 -4.32001,0.641797 -7.09414,2.368309 -3.17042,1.973209 -6.48028,5.306536 -8.65787,10.520309 -2.09815,5.0236705 -1.82581,9.7147858 -0.40049,13.46792681 1.42531,3.75311449 4.02765,6.55402009 6.50193,7.73853319 3.24518,1.553554 6.0944,1.8035852 8.57467,1.1570494 2.48027,-0.6465358 4.61528,-2.2046141 6.37015,-4.3707843 3.50971,-4.33234038 5.43877,-11.087629 5.39967,-17.3095711 -0.0249,-3.962082 -0.17401,-6.989656 -1.44642,-9.144158 -1.2724,-2.154502 -3.68934,-3.605162 -8.62377,-4.380071 -0.1838,-0.0289 -0.39268,-0.04506 -0.62373,-0.04806 z m 43.10435,0.583944 c 7.10543,-0.02714 13.98281,6.546019 16.9416,14.275107 3.84652,10.0479749 -1.23296,21.5859776 -8.47649,24.256893 -7.24351,2.671022 -17.34058,-0.06794 -21.68963,-9.945634 -4.92609,-11.1881178 0.5056,-22.840632 7.28379,-26.891906 1.9443,-1.162055 3.9512,-1.686462 5.94073,-1.69446 z m -44.80605,1.022154 c 4.89273,0.02913 5.67305,7.010188 5.05912,13.44467 -0.98635,10.3377731 -9.53615,18.4387326 -15.30243,15.8501815 -3.59288,-1.6128735 -5.7934,-9.3060571 -2.53989,-17.9875385 3.36013,-8.965989 9.54048,-10.84072 11.74967,-11.21791 0.36355,-0.0621 0.70735,-0.09041 1.03353,-0.0894 z m -0.14573,0.617538 c -2.31263,0.03442 -6.10004,2.186013 -7.71013,4.193037 -0.57006,0.710591 -1.75771,2.287693 -2.91506,4.430739 l 6.41666,-2.668588 c 1.74551,-2.057373 3.4389,-3.946498 4.65088,-5.932963 -0.13998,-0.01693 -0.28818,-0.02514 -0.44235,-0.02222 z m 47.92317,0.478525 c -2.62881,-0.09242 -6.63161,1.503468 -10.45776,4.529958 -0.64005,0.982186 -1.63042,2.758466 -2.56263,4.976442 l 8.89299,-2.592097 c 1.53698,-2.661179 3.03557,-5.039862 4.1274,-6.914303 z m -29.52378,7.488423 v 0 c -0.20338,-0.0034 -0.40646,-0.0034 -0.60926,0 -1.30245,0.0254 -2.58023,0.206057 -3.78117,0.444923 -0.11596,3.976026 -1.3983,12.1251131 -2.94969,15.69931635 l -0.15916,0.74464333 c 3.06956,-2.12894328 6.54033,-0.46413208 10.14201,1.34151682 -1.03122,-4.3355418 -0.1528,-13.5623565 1.87534,-17.7317135 -1.20299,-0.395922 -3.26857,-0.476832 -4.51807,-0.499216 z m -24.48223,0.285273 -5.30355,1.872218 c -1.98918,4.273206 -3.41458,10.2060378 -0.54673,16.2248587 -0.5479,-8.4127709 2.46516,-13.7634127 5.85028,-18.0970767 z m 47.71337,3.081444 -7.68118,1.17049 c -2.10371,6.2480558 -2.92467,14.5230317 3.99562,19.3853589 -2.47941,-6.20723073 0.24708,-13.8950169 3.68556,-20.5558489 z m -32.5515,18.3441175 c 0.70827,2.4881945 0.54231,3.6186004 3.06286,5.9634435 2.98535,-1.1889844 7.87581,-3.4111933 9.8578,-4.8632531 -6.12602,2.2238229 -11.18631,3.7868224 -12.92066,-1.1001904 z m 4.0349,8.5958625 c 0,0 -9.26413,4.852988 -12.11451,5.328867 -2.8504,0.47588 -4.91598,-0.173646 -4.91598,-0.173646 l 9.4356,13.558361 7.13497,1.121384 0.19172,-3.392567 1.1498,3.432863 8.95397,0.230478 13.75317,-14.553115 c 0,0 -8.85437,0.746601 -12.65194,0.0708 -3.79757,-0.675773 -10.9368,-5.623428 -10.9368,-5.623428 z" />
    </g>
  </g>
</svg>
