<?xml version="1.0" encoding="UTF-8" standalone="no"?>
<svg
   xmlns:dc="http://purl.org/dc/elements/1.1/"
   xmlns:cc="http://creativecommons.org/ns#"
   xmlns:rdf="http://www.w3.org/1999/02/22-rdf-syntax-ns#"
   xmlns:svg="http://www.w3.org/2000/svg"
   xmlns="http://www.w3.org/2000/svg"
   xmlns:sodipodi="http://sodipodi.sourceforge.net/DTD/sodipodi-0.dtd"
   xmlns:inkscape="http://www.inkscape.org/namespaces/inkscape"
   width="211.66667mm"
   height="245.38594mm"
   viewBox="0 0 211.66666 245.38594"
   version="1.1"
   id="svg37"
   inkscape:version="1.0.2 (e86c870879, 2021-01-15)"
   sodipodi:docname="tuzi.svg">
  <defs
     id="defs31" />
  <sodipodi:namedview
     id="base"
     pagecolor="#ffffff"
     bordercolor="#666666"
     borderopacity="1.0"
     inkscape:pageopacity="0.0"
     inkscape:pageshadow="2"
     inkscape:zoom="0.35"
     inkscape:cx="931.68174"
     inkscape:cy="-11.247958"
     inkscape:document-units="mm"
     inkscape:current-layer="layer1"
     inkscape:document-rotation="0"
     showgrid="false"
     inkscape:window-width="1920"
     inkscape:window-height="1025"
     inkscape:window-x="0"
     inkscape:window-y="27"
     inkscape:window-maximized="1"
     fit-margin-top="0"
     fit-margin-left="0"
     fit-margin-right="0"
     fit-margin-bottom="0" />
  <metadata
     id="metadata34">
    <rdf:RDF>
      <cc:Work
         rdf:about="">
        <dc:format>image/svg+xml</dc:format>
        <dc:type
           rdf:resource="http://purl.org/dc/dcmitype/StillImage" />
        <dc:title />
      </cc:Work>
    </rdf:RDF>
  </metadata>
  <g
     inkscape:label="Layer 1"
     inkscape:groupmode="layer"
     id="layer1"
     transform="translate(174.72782,-319.2727)">
    <g
       id="g599"
       transform="matrix(2.1067225,0,0,2.1067225,38.612768,507.33884)"
       inkscape:export-xdpi="96"
       inkscape:export-ydpi="96">
      <path
         id="path528"
         style="fill:#ffffff;stroke:none;stroke-width:0.264583px;stroke-linecap:butt;stroke-linejoin:miter;stroke-opacity:1"
         d="m -39.53538,-39.190681 c -0.18362,-8.4e-5 -0.36692,0.0024 -0.55036,0.0078 v 0 c -2.5682,0.07802 -5.12048,0.724995 -7.5375,2.053103 -4.20439,2.310191 -8.10734,6.932123 -10.15548,12.584763 -2.04811,5.65264 -2.26054,12.315497 0.83045,18.769396 2.71605,5.671 7.59142,9.115578 12.9553,10.774018 5.36387,1.658581 11.2074,1.501709 15.72873,-0.031 4.44715,-1.50755 8.30295,-5.723712 10.41694,-11.035503 2.11418,-5.311809 2.48436,-11.685619 0.0801,-17.459399 -2.37305,-5.698799 -7.09449,-10.647574 -12.59512,-13.379545 -2.75032,-1.365999 -5.68439,-2.181413 -8.62169,-2.275313 -0.18357,-0.0056 -0.36724,-0.0082 -0.55086,-0.0083 z m -39.714378,1.461926 c -1.61743,-0.01696 -4.32051,0.642298 -7.09464,2.368849 -3.17043,1.973199 -6.48028,5.305952 -8.65789,10.51977 -2.09814,5.023652 -1.82581,9.714762 -0.40049,13.467913 1.42531,3.753139 4.02817,6.554055 6.50245,7.738544 3.24519,1.553541 6.09388,1.803577 8.57416,1.157036 2.48026,-0.646541 4.61526,-2.204106 6.37014,-4.370276 3.509718,-4.33233 5.439298,-11.088145 5.400198,-17.310055 -0.0249,-3.962088 -0.17402,-6.989127 -1.44643,-9.143627 -1.2724,-2.15451 -3.689348,-3.605183 -8.623768,-4.380095 -0.18378,-0.0289 -0.39267,-0.04506 -0.62373,-0.04806 z m 43.104348,0.583944 c 7.10542,-0.02714 13.98281,6.546019 16.94159,14.275099 3.84654,10.047988 -1.23296,21.585927 -8.47648,24.256917 -7.2435,2.671009 -17.34108,-0.06797 -21.69014,-9.945647 -4.9261,-11.18811 0.50612,-22.840627 7.28432,-26.891898 1.94429,-1.162079 3.95118,-1.68647 5.94071,-1.694471 z m -44.806568,1.022159 c 4.89275,0.02913 5.67306,7.010189 5.05912,13.444659 -0.98634,10.33779 -9.53614,18.438744 -15.30241,15.850195 -3.59289,-1.612881 -5.79343,-9.306073 -2.5399,-17.987533 3.36013,-8.965999 9.54048,-10.841257 11.74967,-11.218437 0.36354,-0.0621 0.70734,-0.08988 1.03352,-0.08888 z m -0.14574,0.617535 c -2.31261,0.03443 -6.09952,2.186025 -7.70958,4.193024 -0.57008,0.710613 -1.75774,2.28772 -2.91508,4.430739 l 6.41665,-2.668572 c 1.74551,-2.05737 3.43839,-3.947027 4.65037,-5.933487 -0.13996,-0.01691 -0.28818,-0.02471 -0.44236,-0.0217 z m 47.923188,0.478523 c -2.62882,-0.09243 -6.63162,1.503476 -10.45776,4.529958 -0.64006,0.982178 -1.62992,2.757942 -2.56212,4.975923 l 8.89248,-2.591573 c 1.53697,-2.661181 3.03557,-5.039868 4.1274,-6.914308 z m -29.52327,7.488433 c -0.20338,-0.0033 -0.40645,-0.0035 -0.60925,5.29e-4 -1.30247,0.02532 -2.58025,0.206592 -3.78116,0.44545 -0.11597,3.976031 -1.39833,12.124584 -2.94971,15.698785 l -0.15968,0.744656 c 3.06957,-2.12894 6.54034,-0.464129 10.14201,1.34152 -1.03121,-4.335529 -0.1528,-13.561796 1.87534,-17.731216 -1.20298,-0.39592 -3.26805,-0.477311 -4.51755,-0.499711 z m -24.482208,0.284737 -5.30357,1.872236 c -1.98917,4.27319 -3.41509,10.206019 -0.54724,16.224851 -0.5479,-8.412771 2.46568,-13.763408 5.85081,-18.097087 z m 47.712838,3.081464 -7.6812,1.170472 c -2.1037,6.248061 -2.92415,14.523556 3.99616,19.385896 -2.47941,-6.207239 0.24657,-13.895538 3.68504,-20.556368 z m -32.551498,18.3441 c 0.708258,2.488191 0.542308,3.618611 3.062868,5.963462 2.98534,-1.189001 7.8763,-3.411199 9.85829,-4.863269 -6.126,2.22382 -11.18682,3.786817 -12.921158,-1.100193 z M -67.98378,2.768 c 0,0 -9.264118,4.852995 -12.114498,5.328874 -2.85041,0.47588 -4.91598,-0.173116 -4.91598,-0.173116 l 9.43612,13.558334 7.134438,1.121384 0.19172,-3.39307 1.15032,3.433392 8.95345,0.22995 13.75368,-14.553115 c 0,0 -8.85436,0.74713 -12.65193,0.07131 -3.79756,-0.675772 -10.93732,-5.623938 -10.93732,-5.623938 z" />
      <path
         id="path437"
         style="fill:#d40000;fill-opacity:1;stroke:none;stroke-width:0.351061;stroke-linecap:butt;stroke-linejoin:miter;stroke-miterlimit:4;stroke-dasharray:none;stroke-opacity:1"
         d="m -74.687728,-89.269412 c -0.60124,-0.005 -1.13607,0.14303 -1.57045,0.35735 -1.38999,0.68584 -16.2849,5.72268 -20.52944,12.52249 -5.797912,9.28837 -4.964222,27.125294 -3.04983,32.706174 1.91441,5.5809 5.64374,9.89916 5.64374,9.89915 8.32451,-6.27322 12.87322,-22.001754 19.02881,-33.893954 l -7.49555,18.411314 c 0.97978,3.47003 1.81677,6.89271 3.13678,10.47624 -1.92481,0.0318 -4.59344,0.79477 -7.38191,2.53025 -3.34483,2.08175 -6.81119,5.59319 -9.07422,11.01159 -1.94684,4.66139 -1.95625,9.10434 -0.88586,12.82713 -1.26723,3.12973 -2.08559,6.17297 -2.14617,8.85103 2.21224,21.32094 19.84977,28.58927 37.529788,30.54084 17.68002,1.95157 54.13149,-8.25354 51.16473,-25.18736 -0.98073,-5.59787 -2.72437,-10.49684 -4.82155,-14.80421 0.30118,-3.61239 -0.16954,-7.36297 -1.6478,-10.91302 -2.31061,-5.5489 -6.7088,-10.36302 -11.93921,-13.30085 l 3.39486,-5.74577 c -1.89342,-5.77785 -3.27293,-11.819214 -3.0827,-17.386464 1.31053,13.051424 9.50191,33.736724 12.75113,35.887474 3.24924,2.15075 7.3384,-0.77971 8.88597,-3.23947 1.54756,-2.45976 7.18123,-15.18597 5.7519,-27.317124 -1.42934,-12.13115 -14.93848,-24.9441 -21.79385,-25.7227 -0.85692,-0.0974 -1.6174,-0.13992 -2.29406,-0.13009 -4.73665,0.0689 -5.37664,2.705 -6.39884,7.08548 -1.00492,4.30638 -5.57361,26.730244 -6.96979,33.591354 -0.16161,-0.009 -0.32298,-0.0175 -0.48469,-0.0225 -1.09067,-0.0342 -2.18327,0.0274 -3.26891,0.18826 -2.49978,-0.66147 -4.98485,-1.1309 -7.30456,-1.65876 -3.33718,-0.7594 -6.97142,-1.17495 -10.48376,-1.21035 -3.35811,-0.0339 -6.59937,0.28382 -9.3686,0.9769 0.54222,-11.608804 1.16906,-41.295544 -0.71197,-44.129204 -1.61515,-2.43313 -3.261258,-3.18919 -4.583988,-3.20113 z m 34.601798,50.086494 c 0.36689,-0.0106 0.73434,-0.0106 1.1015,6.9e-4 2.9373,0.0939 5.87139,0.9089 8.62171,2.2749 5.50062,2.73197 10.22201,7.68078 12.59504,13.37958 2.40425,5.77378 2.03398,12.14793 -0.0802,17.45974 -2.11401,5.31179 -5.96954,9.528 -10.41668,11.03555 -4.52135,1.53272 -10.36523,1.68929 -15.7291,0.0307 -5.36387,-1.65844 -10.2391,-5.10304 -12.95514,-10.77404 -3.09101,-6.4539 -2.87853,-13.11671 -0.8304,-18.76935 2.04813,-5.65264 5.9508,-10.27459 10.15517,-12.58478 2.41704,-1.32811 4.96979,-1.97508 7.538,-2.0531 z m -39.163898,1.45408 c 0.23105,0.003 0.43986,0.0191 0.62366,0.048 4.93442,0.77491 7.351348,2.22548 8.623748,4.37999 1.27241,2.1545 1.42168,5.18195 1.44655,9.14404 0.0391,6.22191 -1.89033,12.97748 -5.400038,17.30981 -1.75487,2.16617 -3.88982,3.72387 -6.37009,4.37041 -2.48027,0.64654 -5.32929,0.39658 -8.57447,-1.15696 -2.47428,-1.18449 -5.07691,-3.98543 -6.50222,-7.73857 -1.42532,-3.75315 -1.69766,-8.44426 0.40049,-13.46791 2.17759,-5.21382 5.48755,-8.54686 8.65797,-10.52006 2.77413,-1.72655 5.47698,-2.38564 7.0944,-2.36867 z m 43.104388,0.58395 c -1.98952,0.008 -3.99655,0.53228 -5.94085,1.69436 -6.7782,4.05127 -12.2101,15.70387 -7.28401,26.89198 4.34905,9.87768 14.44628,12.6167 21.68979,9.94569 7.24353,-2.67099 12.32308,-14.20901 8.47656,-24.257 -2.95879,-7.72908 -9.83606,-14.30217 -16.94149,-14.27503 z m -44.806278,1.02209 c -0.32618,-10e-4 -0.67017,0.0269 -1.03372,0.089 -2.20919,0.37718 -8.38946,2.25234 -11.74959,11.21834 -3.25351,8.68146 -1.05306,16.37467 2.53982,17.98755 5.76628,2.58855 14.31625,-5.51248 15.3026,-15.85027 0.61393,-6.43447 -0.16637,-13.41549 -5.05911,-13.44462 z m -0.1458,0.6175 c 0.15417,-0.003 0.30226,0.005 0.44224,0.0219 -1.21198,1.98646 -2.90491,3.87594 -4.65042,5.93331 l -6.41665,2.66853 c 1.15735,-2.14302 2.3449,-3.72004 2.91497,-4.43065 1.61009,-2.007 5.39723,-4.15867 7.70986,-4.1931 z m 47.923198,0.47853 c -1.09183,1.87444 -2.59041,4.25316 -4.12739,6.91434 l -8.8928,2.59185 c 0.93221,-2.21798 1.92236,-3.99409 2.56241,-4.97627 3.82615,-3.02648 7.82897,-4.62235 10.45778,-4.52992 z m -54.005788,7.7735 c -3.38513,4.33368 -6.39838,9.6843 -5.85048,18.09707 -2.86785,-6.01883 -1.4422,-11.95154 0.54698,-16.22473 z m 47.713048,3.08132 c -3.43848,6.66083 -6.16455,14.34889 -3.68514,20.55613 -6.92029,-4.86234 -6.09965,-13.13742 -3.99594,-19.38548 z m -23.23095,-3.36614 c 1.2495,0.0224 3.31496,0.10363 4.51795,0.49955 -2.02814,4.16942 -2.90664,13.39587 -1.87542,17.7314 -3.60168,-1.80565 -7.07249,-3.47039 -10.14205,-1.34145 l 0.15952,-0.74483 c 1.55139,-3.5742 2.83378,-11.72297 2.94974,-15.699 1.20094,-0.23886 2.47853,-0.41966 3.78098,-0.44499 0.2028,-0.004 0.4059,-0.004 0.60928,-6.8e-4 z m -9.320518,21.71036 c 1.734348,4.88701 6.794888,3.32395 12.920908,1.10013 -1.98199,1.45207 -6.87272,3.67431 -9.85807,4.86331 -2.52055,-2.34485 -2.35457,-3.47525 -3.062838,-5.96344 z m 4.034958,8.59568 c 0,0 7.13942,4.94812 10.93698,5.62389 3.79757,0.67581 12.65187,-0.0711 12.65187,-0.0711 l -13.75338,14.55298 -8.95372,-0.23003 -1.1501,-3.43321 -0.19169,3.39281 -7.134768,-1.12135 -9.43568,-13.55827 c 0,0 2.06563,0.6491 4.91603,0.17322 2.85038,-0.47588 12.114458,-5.32885 12.114458,-5.32885 z"
         sodipodi:nodetypes="ssssccccssccsscscccsssssscccsscsssscsscscsssssscsssssssssscsssscccssscscccssscccccccccccccccccccsccccccscccccccscc"
         inkscape:export-xdpi="96"
         inkscape:export-ydpi="96" />
    </g>
  </g>
</svg>
