<?xml version="1.0" encoding="UTF-8" standalone="no"?>
<svg
   xmlns:dc="http://purl.org/dc/elements/1.1/"
   xmlns:cc="http://creativecommons.org/ns#"
   xmlns:rdf="http://www.w3.org/1999/02/22-rdf-syntax-ns#"
   xmlns:svg="http://www.w3.org/2000/svg"
   xmlns="http://www.w3.org/2000/svg"
   xmlns:sodipodi="http://sodipodi.sourceforge.net/DTD/sodipodi-0.dtd"
   xmlns:inkscape="http://www.inkscape.org/namespaces/inkscape"
   width="629.00323mm"
   height="211.66667mm"
   viewBox="0 0 629.00323 211.66667"
   version="1.1"
   id="svg216"
   inkscape:version="1.0.2 (e86c870879, 2021-01-15)"
   sodipodi:docname="tuzi_sign_horizontal.svg">
  <defs
     id="defs210" />
  <sodipodi:namedview
     id="base"
     pagecolor="#ffffff"
     bordercolor="#666666"
     borderopacity="1.0"
     inkscape:pageopacity="0.0"
     inkscape:pageshadow="2"
     inkscape:zoom="0.35"
     inkscape:cx="1188.6675"
     inkscape:cy="400.00001"
     inkscape:document-units="mm"
     inkscape:current-layer="layer1"
     inkscape:document-rotation="0"
     showgrid="false"
     inkscape:window-width="1920"
     inkscape:window-height="1025"
     inkscape:window-x="0"
     inkscape:window-y="27"
     inkscape:window-maximized="1" />
  <metadata
     id="metadata213">
    <rdf:RDF>
      <cc:Work
         rdf:about="">
        <dc:format>image/svg+xml</dc:format>
        <dc:type
           rdf:resource="http://purl.org/dc/dcmitype/StillImage" />
        <dc:title></dc:title>
      </cc:Work>
    </rdf:RDF>
  </metadata>
  <g
     inkscape:label="Layer 1"
     inkscape:groupmode="layer"
     id="layer1"
     transform="translate(21.119949,-65.737408)">
    <g
       id="g581"
       transform="matrix(1.8172312,0,0,1.8172312,52.716822,-18.404393)">
      <path
         id="path350"
         style="fill:#d40000;fill-opacity:1;stroke:none;stroke-width:0.351061;stroke-linecap:butt;stroke-linejoin:miter;stroke-miterlimit:4;stroke-dasharray:none;stroke-opacity:1"
         d="m -14.052613,46.302322 c -0.60124,-0.005 -1.13607,0.14303 -1.57045,0.35735 -1.38999,0.68584 -16.2849,5.722676 -20.52944,12.522486 -5.79791,9.28837 -4.96422,27.12529 -3.04983,32.70617 1.91441,5.5809 5.64374,9.899162 5.64374,9.899152 8.32451,-6.273222 12.87322,-22.001752 19.02881,-33.893952 l -7.49555,18.41131 c 0.97978,3.47003 1.81677,6.89271 3.13678,10.47624 -1.92481,0.0318 -4.59344,0.79477 -7.38191,2.53025 -3.34483,2.081752 -6.81119,5.593192 -9.07422,11.011592 -1.94684,4.66139 -1.95625,9.10434 -0.88586,12.82713 -1.26723,3.12973 -2.08559,6.17296 -2.14617,8.85102 2.21224,21.32094 19.84977,28.58927 37.52979004,30.54084 17.68001996,1.95157 54.13147996,-8.25354 51.16471996,-25.18736 -0.98073,-5.59787 -2.72437,-10.49684 -4.82155,-14.8042 0.30118,-3.61239 -0.16954,-7.36297 -1.6478,-10.91302 -2.31061,-5.5489 -6.7088,-10.36302 -11.93921,-13.300852 l 3.39486,-5.74577 c -1.89342,-5.77785 -3.27293,-11.81921 -3.0827,-17.38646 1.31053,13.05142 9.50191,33.736722 12.75113,35.887472 3.24924,2.15075 7.3384,-0.77971 8.88597,-3.23947 1.54756,-2.45976 7.18123,-15.185972 5.7519,-27.317122 -1.42934,-12.13115 -14.93848,-24.9441 -21.79385,-25.7227 -0.85692,-0.0974 -1.6174,-0.13992 -2.29406,-0.13009 -4.73665,0.0689 -5.37664,2.705 -6.39884,7.08548 -1.00492,4.30638 -5.57361,26.73024 -6.96979,33.59135 -0.16161,-0.009 -0.32298,-0.0175 -0.48469,-0.0225 -1.09066,-0.0342 -2.18326,0.0274 -3.2689,0.18826 -2.49978,-0.66147 -4.98485,-1.1309 -7.30456,-1.65876 -3.33718,-0.7594 -6.97142,-1.17495 -10.48375996,-1.21035 -3.35811004,-0.0339 -6.59937004,0.28382 -9.36860004,0.9769 0.54222,-11.6088 1.16906,-41.29554 -0.71197,-44.1292 -1.61515,-2.433126 -3.26126,-3.189186 -4.58399,-3.201126 z m 34.6018,50.086486 c 0.36688,-0.0106 0.73433,-0.0106 1.10149,6.9e-4 2.9373,0.0939 5.87139,0.9089 8.62171,2.2749 5.50062,2.731972 10.22201,7.680782 12.59504,13.379582 2.40425,5.77378 2.03398,12.14793 -0.0802,17.45973 -2.11401,5.31179 -5.96954,9.528 -10.41668,11.03555 -4.52135,1.53272 -10.36523,1.68929 -15.72909,0.0307 -5.36387,-1.65844 -10.2391,-5.10304 -12.95514,-10.77404 -3.09100996,-6.45389 -2.87852996,-13.1167 -0.8304,-18.76934 2.04813,-5.65264 5.9508,-10.27459 10.15517,-12.584782 2.41704,-1.32811 4.96979,-1.97508 7.538,-2.0531 z m -39.1639,1.45408 c 0.23105,0.003 0.43986,0.0191 0.62366,0.048 4.93442,0.77491 7.35135,2.225482 8.62375,4.379992 1.27241,2.1545 1.42168,5.18195 1.44655,9.14404 0.0391,6.22191 -1.89033,12.97748 -5.40004,17.3098 -1.75487,2.16617 -3.88982,3.72387 -6.37009,4.37041 -2.48027,0.64654 -5.32929,0.39658 -8.57447,-1.15696 -2.47428,-1.18449 -5.07691,-3.98543 -6.50222,-7.73856 -1.42532,-3.75315 -1.69766,-8.44426 0.40049,-13.46791 2.17759,-5.21382 5.48755,-8.54686 8.65797,-10.52006 2.77413,-1.726552 5.47698,-2.385642 7.0944,-2.368672 z m 43.10438,0.58395 c -1.98952,0.008 -3.99654,0.53228 -5.94084,1.694362 -6.7782,4.05127 -12.2101,15.70387 -7.28401,26.89197 4.34905,9.87768 14.44627,12.6167 21.68978,9.94569 7.24353,-2.67099 12.32308,-14.209 8.47656,-24.25699 -2.95879,-7.72908 -9.83606,-14.302172 -16.94149,-14.275032 z m -44.80627,1.02209 c -0.32618,-10e-4 -0.67017,0.0269 -1.03372,0.089 -2.20919,0.37718 -8.38946,2.252342 -11.74959,11.218342 -3.25351,8.68146 -1.05306,16.37466 2.53982,17.98754 5.76628,2.58855 14.31625,-5.51247 15.3026,-15.85026 0.61393,-6.43447 -0.16637,-13.415492 -5.05911,-13.444622 z m -0.1458,0.617502 c 0.15417,-0.003 0.30226,0.005 0.44224,0.0219 -1.21198,1.98646 -2.90491,3.87594 -4.65042,5.93331 l -6.41665,2.66853 c 1.15735,-2.14302 2.3449,-3.72004 2.91497,-4.43065 1.61009,-2.007 5.39723,-4.15867 7.70986,-4.1931 z m 47.92319,0.47853 c -1.09183,1.87444 -2.59041,4.25316 -4.12739,6.91434 l -8.89279,2.59185 c 0.93221,-2.21798 1.92236,-3.99409 2.56241,-4.97627 3.82615,-3.02648 7.82896,-4.62235 10.45777,-4.52992 z m -54.00578,7.7735 c -3.38513,4.33368 -6.39838,9.6843 -5.85048,18.09706 -2.86785,-6.01882 -1.4422,-11.95153 0.54698,-16.22472 z m 47.71304,3.08132 c -3.43847,6.66083 -6.16454,14.34889 -3.68513,20.55612 -6.92029,-4.86234 -6.09965,-13.13741 -3.99594,-19.38547 z m -23.23094,-3.36614 c 1.24950004,0.0224 3.31496,0.10363 4.51795,0.49955 -2.02813996,4.16942 -2.90663996,13.39587 -1.87541996,17.7314 C -3.022043,124.45894 -6.492853,122.7942 -9.562413,124.92314 l 0.15952,-0.74483 c 1.55139,-3.5742 2.83378,-11.72297 2.94974,-15.699 1.20094,-0.23886 2.47853,-0.41966 3.78098,-0.44499 0.2028,-0.004 0.4059,-0.004 0.60928,-6.8e-4 z m -9.32052,21.71035 c 1.73435,4.88701 6.79489,3.32395 12.92091,1.10013 -1.98198996,1.45207 -6.87272,3.67431 -9.85807,4.86331 -2.52055,-2.34485 -2.35457,-3.47525 -3.06284,-5.96344 z m 4.03496,8.59568 c 0,0 7.13942004,4.94812 10.93698,5.62389 3.79757,0.67581 12.65187,-0.0711 12.65187,-0.0711 l -13.75338,14.55298 -8.95372,-0.23003 -1.1501,-3.43321 -0.19169,3.39281 -7.13477,-1.12135 -9.43568,-13.55827 c 0,0 2.06563,0.6491 4.91603,0.17322 2.85038,-0.47588 12.11446,-5.32885 12.11446,-5.32885 z m 77.448525,-54.304412 -0.2053,0.27058 v 0.27208 l 0.2053,1.89908 c 1.29637,4.70392 3.58084,7.05658 6.85592,7.05658 v 35.822592 l 0.20529,0.27058 h 7.77825 c 1.09171,0 2.35442,-0.3155 3.78726,-0.94874 2.06398,-0.74631 4.11063,-2.55604 6.14048,-5.42814 3.18979,4.25162 6.533578,6.37688 10.030398,6.37688 h 7.6756 l 0.20377,-0.27058 V 84.307318 l -0.20377,-0.27209 h -6.75485 l -0.20529,0.27209 v 35.821012 l -1.53511,-0.27058 c -3.68446,-1.56044 -5.526128,-4.59059 -5.526128,-9.09098 V 84.305778 l -0.2053,-0.27058 h -6.8575 l -0.20376,0.27058 v 26.324112 c 0,1.33428 -0.17057,2.51137 -0.5117,3.52907 -1.4499,3.98027 -3.63424,5.96939 -6.55111,5.96939 V 84.305778 l -0.20376,-0.27058 z m 70.004298,0 -0.20529,0.27208 v 0.27058 l 0.10269,1.49314 c 1.24521,4.97534 3.56568,7.46252 6.96014,7.46252 v 26.594752 h -6.85749 l -0.20529,0.27207 v 8.95564 l 0.20529,0.27059 h 13.91875 l 0.20529,-0.27059 v -17.77596 l 1.94419,0.40748 c 3.41152,1.67353 5.11707,4.88461 5.11707,9.63379 v 7.73469 l 0.20531,0.27059 h 6.75482 l 0.20376,-0.27059 v -8.68503 c 0,-4.6587 -1.29559,-8.86437 -3.88835,-12.61845 2.93393,-2.89477 4.40006,-6.19711 4.40006,-9.905992 v -0.67812 c 0,-1.83181 -0.37552,-3.59667 -1.12606,-5.29279 -2.69512,-5.42766 -7.0278,-8.14067 -12.99799,-8.14067 z m 70.81975,0 -0.2053,0.27208 v 27.680372 c 0,2.69115 0.61494,5.5852 1.84309,8.68346 3.03625,5.97041 7.06071,8.95564 12.07567,8.95564 h 4.29895 l 0.2053,-0.27058 v -8.95564 l -0.2053,-0.27209 h -2.35324 c -1.33049,0 -2.4915,-0.13454 -3.48084,-0.40592 -3.41153,-1.62832 -5.11707,-4.34288 -5.11707,-8.14221 V 84.305928 l -0.20376,-0.27058 z m 45.54349,0 -0.20376,0.27058 v 45.050432 l 0.20376,0.27058 h 7.8809 c 2.84864,0 5.61191,-1.17553 8.28998,-3.52751 3.75268,-3.95764 5.62877,-8.66136 5.62877,-14.11159 v -1.35784 c 0,-1.99011 -0.27227,-4.02412 -0.81812,-6.10471 -2.5757,-7.960502 -7.1822,-11.941872 -13.81764,-11.941872 h -0.20376 v -8.27752 l -0.20529,-0.27058 z m -140.92673,8.54816 -0.2053,0.27209 v 18.724742 c 0,4.95269 1.43328,9.29447 4.29896,13.02597 3.00214,3.34701 6.24267,5.02063 9.72244,5.02063 -1.24522,3.25655 -3.83794,4.88532 -7.77826,4.88532 h -2.55853 l -0.20377,0.27058 v 8.95566 l 0.20377,0.27208 h 4.40161 c 2.76333,0 5.56105,-1.17553 8.39261,-3.52752 3.68446,-4.0707 5.52613,-8.776 5.52613,-14.11315 V 92.855358 l -0.2053,-0.27209 h -6.75485 l -0.20376,0.27209 v 27.137592 h -0.20529 c -1.65459,0 -2.9846,-0.45169 -3.99101,-1.35627 -2.31984,-1.31171 -3.47929,-4.52437 -3.47929,-9.63534 V 92.855358 l -0.2053,-0.27209 z m 69.90167,0 c -2.84863,0 -5.61191,1.17553 -8.28997,3.5275 -3.75268,3.935032 -5.62877,8.640322 -5.62877,14.113152 v 1.76376 c 0,2.66859 0.61491,5.56256 1.84308,8.68345 3.03625,5.97038 7.0607,8.95565 12.07566,8.95565 h 1.84308 c 2.84864,0 5.61191,-1.17553 8.28997,-3.52751 3.75269,-3.95763 5.62877,-8.66134 5.62877,-14.11159 v -1.76376 c 0,-2.66857 -0.61336,-5.56412 -1.84152,-8.685 -3.03626,-5.970402 -7.06227,-8.955652 -12.07722,-8.955652 z m 60.17655,0 c -2.84863,0 -5.61191,1.17709 -8.28996,3.52904 -3.75269,3.935022 -5.62877,8.638752 -5.62877,14.111612 v 1.76376 c 0,2.78164 0.68221,5.85662 2.04682,9.22629 3.13861,5.60855 7.09578,8.41281 11.87191,8.41281 h 7.88091 l 0.2053,-0.27056 V 92.855628 l -0.2053,-0.27209 z m 49.12699,0 c -2.84867,0 -5.61347,1.17553 -8.29153,3.5275 -3.75267,3.935032 -5.62877,8.638762 -5.62877,14.111592 v 5.42815 l 0.2053,0.27209 h 13.5097 l -0.20527,0.27058 c -1.09169,2.62333 -3.71887,3.935 -7.88092,3.935 h -5.42349 l -0.20529,0.27207 v 8.95564 l 0.20529,0.27059 h 7.88093 c 2.84863,0 5.61193,-1.1755 8.28995,-3.5275 3.75267,-3.95764 5.62878,-8.66136 5.62878,-14.11159 v -5.42815 l -0.20527,-0.27058 h -13.5097 l 0.20527,-0.27209 c 1.09167,-2.62334 3.71881,-3.935 7.8809,-3.935 h 5.42347 l 0.20527,-0.27058 v -8.955632 l -0.20527,-0.27209 z m -140.51768,0.95031 1.73888,0.13543 c 3.88914,0.72369 5.83409,2.08016 5.83409,4.07031 l -0.10269,0.6797 c -1.04053,2.351952 -3.18888,3.527502 -6.44689,3.527502 h -0.5117 l -0.51171,0.13545 z m 32.13645,8.548142 2.45588,0.4075 c 3.41155,1.62829 5.11709,4.34132 5.11709,8.14064 v 0.95033 c 0,0.65582 -0.10171,1.46943 -0.3064,2.44188 -1.31345,4.07072 -3.73563,6.10626 -7.26657,6.10626 l -2.45743,-0.40594 c -3.41153,-1.62831 -5.11707,-4.34288 -5.11707,-8.1422 v -0.95033 c 0,-0.65583 0.10331,-1.46943 0.30795,-2.44188 1.31344,-4.07072 3.73561,-6.10626 7.26655,-6.10626 z m 60.17501,0 v 18.04661 l -2.45588,-0.40594 c -3.41154,-1.62831 -5.11707,-4.34288 -5.11707,-8.1422 v -0.95033 c 0,-0.65583 0.1017,-1.46943 0.3064,-2.44188 1.33049,-4.07072 3.75267,-6.10626 7.26655,-6.10626 z m 16.88788,0.13544 h 0.40905 c 0.81878,0 1.67155,0.1809 2.55855,0.54282 3.07037,1.69612 4.60536,4.31943 4.60536,7.86999 v 0.95034 c 0,0.65583 -0.1017,1.46943 -0.30641,2.44188 -1.31345,4.07072 -3.73561,6.10625 -7.26655,6.10625 z m -188.985198,32.5455 v 9.24494 h 42.975618 v -9.24494 z m 62.869978,0 c -1.03289,2.17764 -2.34181,4.24983 -3.93812,6.21201 -1.36632,1.26267 -2.72627,2.2666 -4.07966,3.03293 h 176.20653 v -9.24494 z" />
      <path
         id="path567"
         style="fill:#ffffff;stroke:none;stroke-width:0.264583px;stroke-linecap:butt;stroke-linejoin:miter;stroke-opacity:1"
         d="m 21.100004,96.381196 c -0.183618,-8.8e-5 -0.367431,0.0024 -0.550871,0.0078 -2.56821,0.07802 -5.121001,0.724993 -7.538041,2.053103 -4.20437,2.310191 -8.1068056,6.932121 -10.1549356,12.584761 -2.04812997,5.65264 -2.26108645,12.31499 0.8299236,18.76888 2.7160399,5.671 7.591411,9.11558 12.955281,10.77402 5.36386,1.65859 11.207924,1.50223 15.729272,-0.0305 4.44714,-1.50755 8.302408,-5.72371 10.416418,-11.0355 2.114182,-5.3118 2.484866,-11.68613 0.08062,-17.45991 -2.37303,-5.69881 -7.094477,-10.64758 -12.595095,-13.379551 -2.75032,-1.366001 -5.684398,-2.180896 -8.621697,-2.274797 -0.183581,-0.0056 -0.367254,-0.0082 -0.550871,-0.0083 z m -39.714888,1.461926 c -1.61742,-0.01696 -4.320011,0.641778 -7.094141,2.368328 -3.17042,1.9732 -6.480278,5.30647 -8.657868,10.52029 -2.098151,5.02365 -1.825813,9.71476 -0.400494,13.46791 1.42531,3.75313 4.027649,6.55406 6.501929,7.73855 3.24518,1.55354 6.0944,1.80357 8.57467,1.15703 2.480271,-0.64654 4.615284,-2.2041 6.370154,-4.37027 3.5097103,-4.33232 5.4387707,-11.08815 5.3996706,-17.31006 -0.024871,-3.96209 -0.1740133,-6.98964 -1.4464234,-9.14414 -1.2724002,-2.15451 -3.6893432,-3.605186 -8.6237632,-4.380095 -0.1838,-0.0289 -0.392684,-0.04454 -0.623734,-0.04754 z m 43.104345,0.583943 c 7.105429,-0.02714 13.982813,6.545505 16.9416,14.274585 3.846521,10.04799 -1.232953,21.58644 -8.476485,24.25743 -7.243509,2.67101 -17.340581,-0.0685 -21.689631,-9.94616 -4.9260896,-11.1881 0.505593,-22.84063 7.283793,-26.8919 1.9443,-1.162081 3.951203,-1.685954 5.940723,-1.693955 z m -44.80605,1.021644 c 4.89274,0.02913 5.673053,7.010191 5.059122,13.444661 -0.98635,10.33779 -9.536144,18.43874 -15.302424,15.85019 -3.59288,-1.61288 -5.793406,-9.30607 -2.539896,-17.98753 3.360129,-8.966 9.540479,-10.840742 11.749669,-11.217921 0.36355,-0.0621 0.707349,-0.0904 1.033529,-0.0894 z m -0.145728,0.617531 c -2.312629,0.0344 -6.100034,2.18603 -7.710124,4.19303 -0.570069,0.71061 -1.757199,2.28771 -2.91455,4.43074 l 6.416662,-2.66858 c 1.745511,-2.05737 3.438383,-3.94651 4.650363,-5.93297 -0.13998,-0.0169 -0.288181,-0.0252 -0.442351,-0.0222 z m 47.923172,0.47853 c -2.628809,-0.0924 -6.631609,1.50347 -10.457759,4.52995 -0.64005,0.98218 -1.630424,2.75846 -2.562634,4.97644 l 8.892997,-2.59209 c 1.53698,-2.66118 3.035567,-5.03986 4.127396,-6.9143 z m -29.5237782,7.48895 c -0.2033799,-0.003 -0.4064651,-0.004 -0.609265,5.2e-4 -1.3024501,0.0253 -2.5802246,0.20608 -3.7811646,0.44494 -0.11596,3.97603 -1.3983007,12.1251 -2.9496906,15.6993 l -0.1591635,0.74466 c 3.0695601,-2.12896 6.5403364,-0.46415 10.14201645,1.3415 -1.03121998,-4.33553 -0.15280222,-13.56179 1.87533775,-17.73121 -1.20299,-0.39592 -3.26857044,-0.47731 -4.5180705,-0.49971 z m -24.4822248,0.28473 -5.303554,1.87224 c -1.98918,4.27319 -3.414586,10.20603 -0.546735,16.22485 -0.547902,-8.41276 2.465157,-13.76341 5.850289,-18.09709 z m 47.713365,3.08147 -7.681185,1.17047 c -2.10371,6.24806 -2.924152,14.52304 3.996138,19.38538 -2.47941,-6.20723 0.246577,-13.89502 3.685047,-20.55585 z m -32.551501,18.3441 c 0.70827,2.48819 0.542312,3.61861 3.0628616,5.96346 2.9853501,-1.189 7.87580631,-3.4112 9.8577962,-4.86327 -6.12602,2.22382 -11.1863082,3.78682 -12.9206578,-1.10019 z m 4.0348953,8.59586 c 0,0 -9.2641253,4.85299 -12.1145053,5.32887 -2.8504,0.47588 -4.915979,-0.17312 -4.915979,-0.17312 l 9.435599,13.55783 7.1349651,1.12138 0.1917197,-3.39256 1.1498006,3.43338 8.9539752,0.22996 13.7531654,-14.55311 c 0,0 -8.8543708,0.7466 -12.6519406,0.0708 -3.7975599,-0.67577 -10.9368001,-5.62342 -10.9368001,-5.62342 z"
         sodipodi:nodetypes="scssscscsscscsssssscscccsscsccssscccsccccccccccccccccccccccccccccccsccccccccc" />
    </g>
  </g>
</svg>
