<?xml version="1.0" encoding="UTF-8" standalone="no"?>
<svg
   xmlns:dc="http://purl.org/dc/elements/1.1/"
   xmlns:cc="http://creativecommons.org/ns#"
   xmlns:rdf="http://www.w3.org/1999/02/22-rdf-syntax-ns#"
   xmlns:svg="http://www.w3.org/2000/svg"
   xmlns="http://www.w3.org/2000/svg"
   xmlns:sodipodi="http://sodipodi.sourceforge.net/DTD/sodipodi-0.dtd"
   xmlns:inkscape="http://www.inkscape.org/namespaces/inkscape"
   width="831.50696mm"
   height="211.66667mm"
   viewBox="0 0 831.50696 211.66667"
   version="1.1"
   id="svg40"
   inkscape:version="1.0.2 (e86c870879, 2021-01-15)"
   sodipodi:docname="wyrolabs_sign.svg">
  <defs
     id="defs34" />
  <sodipodi:namedview
     id="base"
     pagecolor="#ffffff"
     bordercolor="#666666"
     borderopacity="1.0"
     inkscape:pageopacity="0.0"
     inkscape:pageshadow="2"
     inkscape:zoom="0.35"
     inkscape:cx="1571.3517"
     inkscape:cy="400.00001"
     inkscape:document-units="mm"
     inkscape:current-layer="layer1"
     inkscape:document-rotation="0"
     showgrid="false"
     inkscape:window-width="1920"
     inkscape:window-height="1025"
     inkscape:window-x="0"
     inkscape:window-y="27"
     inkscape:window-maximized="1" />
  <metadata
     id="metadata37">
    <rdf:RDF>
      <cc:Work
         rdf:about="">
        <dc:format>image/svg+xml</dc:format>
        <dc:type
           rdf:resource="http://purl.org/dc/dcmitype/StillImage" />
        <dc:title></dc:title>
      </cc:Work>
    </rdf:RDF>
  </metadata>
  <g
     inkscape:label="Layer 1"
     inkscape:groupmode="layer"
     id="layer1"
     transform="translate(229.64543,-1.0533596)">
    <path
       inkscape:connector-curvature="0"
       style="fill:#d40000;stroke:none;stroke-width:2.42319"
       d="m -228.92088,1.0543096 -0.72455,0.95494 v 0.96023 l 0.72455,6.70227 c 4.57517,16.6011604 12.63756,24.9042104 24.19604,24.9042104 v 126.42577 l 0.72451,0.95494 h 27.45114 c 3.85288,0 8.30926,-1.11347 13.36607,-3.34831 7.28423,-2.63389 14.50731,-9.02086 21.67109,-19.15713 11.25747,15.00493 23.05843,22.50544 35.39947,22.50544 h 27.08887 l 0.71915,-0.95494 V 2.0144696 l -0.71915,-0.96026 h -23.83934 l -0.72451,0.96026 V 128.43464 l -5.41774,-0.95494 c -13.00326,-5.50713 -19.50292,-16.20119 -19.50292,-32.08405 V 2.0090396 l -0.72455,-0.95494 h -24.20161 l -0.71911,0.95494 V 94.91257 c 0,4.70896 -0.60198,8.86317 -1.80591,12.45486 -5.11701,14.04724 -12.82602,21.06728 -23.12029,21.06728 V 2.0090396 l -0.71912,-0.95494 z m 247.06049,0 -0.72451,0.96023 v 0.95494 l 0.36241,5.26962 C 22.17213,25.79816 30.36157,34.57596 42.34137,34.57596 v 93.85868 H 18.13979 l -0.72452,0.96019 v 31.60644 l 0.72452,0.95497 h 49.1223 l 0.72452,-0.95497 V 98.266 l 6.86147,1.43808 c 12.04,5.90625 18.05925,17.23886 18.05925,33.99975 v 27.29744 l 0.72459,0.95497 h 23.83923 l 0.71912,-0.95497 v -30.6514 c 0,-16.44157 -4.57242,-31.28429 -13.72284,-44.53326 10.35448,-10.21628 15.52877,-21.87096 15.52877,-34.9604 v -2.39324 c 0,-6.46485 -1.32529,-12.69343 -3.97411,-18.67941 C 106.51042,10.62816 91.21945,1.0533596 70.14935,1.0533596 Z m 249.93836,0 -0.72455,0.96023 V 99.70461 c 0,9.49766 2.17026,19.71139 6.50466,30.64583 10.71559,21.07091 24.91879,31.60644 42.61768,31.60644 h 15.17193 l 0.72455,-0.95494 V 129.3955 l -0.72455,-0.96026 h -8.30509 c -4.69559,0 -8.79305,-0.47483 -12.28465,-1.43258 -12.04003,-5.7467 -18.05926,-15.32698 -18.05926,-28.73564 V 2.0095696 l -0.71911,-0.95494 z m 160.73288,0 -0.71911,0.95494 V 161.00209 l 0.71911,0.95493 h 27.81342 c 10.05347,0 19.80565,-4.1487 29.25729,-12.44939 13.24374,-13.96737 19.86491,-30.56783 19.86491,-49.80288 v -4.79211 c 0,-7.02353 -0.96066,-14.202 -2.88726,-21.54486 -9.0902,-28.09434 -25.34755,-42.14546 -48.76543,-42.14546 h -0.71911 V 2.0091396 l -0.72452,-0.95493 z M -68.55034,31.22264 -69.27489,32.1829 v 66.0837 c 0,17.47912 5.05836,32.80221 15.17197,45.97149 10.59524,11.81236 22.03178,17.71893 34.31264,17.71893 -4.39465,11.49308 -13.54492,17.24136 -27.45117,17.24136 h -9.02965 l -0.71915,0.95494 v 31.60648 l 0.71915,0.96023 h 15.53428 c 9.75239,0 19.62616,-4.14871 29.61935,-12.44939 C 1.8857897,185.90425 8.3854497,169.29822 8.3854497,150.46225 V 32.18237 l -0.72455,-0.96026 H -16.17844 l -0.71911,0.96026 v 95.77448 h -0.72452 c -5.8394,0 -10.5333,-1.59411 -14.08514,-4.78657 -8.18722,-4.62931 -12.27917,-15.96749 -12.27917,-34.00522 V 32.18237 l -0.72455,-0.96026 z m 246.69828,0 c -10.05343,0 -19.80565,4.1487 -29.25711,12.44931 -13.24403,13.88758 -19.86516,30.49358 -19.86516,49.80839 v 6.22469 c 0,9.41804 2.17015,19.63149 6.50463,30.64579 10.71559,21.07081 24.91875,31.60648 42.61764,31.60648 h 6.50464 c 10.05347,0 19.80565,-4.1487 29.25711,-12.44938 13.24406,-13.96734 19.86516,-30.56776 19.86516,-49.80289 v -6.22469 c 0,-9.41797 -2.16468,-19.63699 -6.49913,-30.65126 C 216.5601,41.75823 202.35143,31.22264 184.65258,31.22264 Z m 212.37615,0 c -10.05344,0 -19.80566,4.1542 -29.25704,12.45475 -13.24407,13.88754 -19.86516,30.48803 -19.86516,49.80295 v 6.22469 c 0,9.81702 2.40767,20.66929 7.22367,32.5616 11.07684,19.79383 25.04252,29.69067 41.89853,29.69067 h 27.81345 l 0.72455,-0.95486 V 32.18332 l -0.72455,-0.96026 z m 173.38001,0 c -10.05368,0 -19.81127,4.1487 -29.26286,12.44931 -13.24375,13.88758 -19.86492,30.48807 -19.86492,49.80288 v 19.15713 l 0.72455,0.96027 h 47.67868 l -0.72455,0.95493 c -3.85284,9.25831 -13.12481,13.88748 -27.81341,13.88748 h -19.14072 l -0.72455,0.96019 v 31.60644 l 0.72455,0.95497 h 27.81342 c 10.05333,0 19.80562,-4.14859 29.25722,-12.44935 13.24374,-13.96737 19.86491,-30.56783 19.86491,-49.80288 V 80.54688 l -0.7242,-0.95493 h -47.67868 l 0.7242,-0.96027 c 3.85285,-9.25834 13.12481,-13.88747 27.81342,-13.88747 h 19.14071 l 0.72455,-0.95494 V 32.1829 l -0.72455,-0.96026 z m -495.91767,3.35385 6.13689,0.47796 c 13.72562,2.55406 20.58977,7.34134 20.58977,14.36501 l -0.36241,2.39881 C 90.67842,60.11882 83.09642,64.26759 71.5982,64.26759 h -1.8059 l -1.80594,0.47803 z m 113.41655,30.16825 8.66733,1.43816 c 12.04011,5.74659 18.05933,15.32146 18.05933,28.73009 v 3.35392 c 0,2.31453 -0.35896,5.18594 -1.08135,8.61793 -4.63545,14.36646 -13.18386,21.55032 -25.64531,21.55032 l -8.67281,-1.43265 c -12.04003,-5.74666 -18.05926,-15.32697 -18.05926,-28.7356 v -3.35392 c 0,-2.31457 0.36461,-5.18594 1.08683,-8.61793 4.63541,-14.36646 13.18378,-21.55032 25.64524,-21.55032 z m 212.37071,0 v 63.69042 l -8.66734,-1.43265 c -12.04007,-5.74666 -18.05926,-15.32697 -18.05926,-28.7356 v -3.35392 c 0,-2.31457 0.35893,-5.18594 1.08136,-8.61793 4.69559,-14.36646 13.24399,-21.55032 25.64524,-21.55032 z m 59.60101,0.478 h 1.44363 c 2.88965,0 5.89926,0.63843 9.02968,1.91573 10.83601,5.98597 16.25339,15.24421 16.25339,27.77491 v 3.35396 c 0,2.31456 -0.35892,5.18594 -1.08135,8.61792 -4.63556,14.36646 -13.18389,21.55029 -25.64535,21.55029 z m -666.97002,114.86021 v 32.62741 h 151.67034 v -32.62741 z m 221.8819197,0 c -3.6453,7.68536 -8.26476005,14.99857 -13.89849,21.92353 -4.8220397,4.45624 -9.6215997,7.99933 -14.3980097,10.70388 h 621.87145 v -32.62741 z"
       id="path376"
       sodipodi:nodetypes="cccccccsccsccccccccsccccscccccccccccccccccccsccccscsscccccscsccccscscccccccscsscsccccccsccsccccscscccccscscccscsscsscsscssccsscscccccscsccccsccccscsccccsccccsccccscccccsscccsscccccsscccscsscccccccccccccc" />
  </g>
</svg>
